%
M48
M72
T01C0.04331
T02C0.13400
T03C0.17500
%
T01
X544100Y54100
X534100Y54100
X524100Y54100
X514100Y54100
X484100Y54100
X474100Y54100
X464100Y54100
X454100Y54100
X424100Y54100
X414100Y54100
X404100Y54100
X394100Y54100
X364100Y54100
X354100Y54100
X344100Y54100
X334100Y54100
X304100Y54100
X294100Y54100
X284100Y54100
X274100Y54100
X244100Y54100
X234100Y54100
X224100Y54100
X214100Y54100
X184100Y54100
X174100Y54100
X164100Y54100
X154100Y54100
X124100Y54100
X114100Y54100
X104100Y54100
X94100Y54100
X64100Y54100
X54100Y54100
X44100Y54100
X34100Y54100
X34100Y89100
X44100Y89100
X54100Y89100
X64100Y89100
X94100Y89100
X104100Y89100
X114100Y89100
X124100Y89100
X154100Y89100
X164100Y89100
X174100Y89100
X184100Y89100
X214100Y89100
X224100Y89100
X234100Y89100
X244100Y89100
X274100Y89100
X284100Y89100
X294100Y89100
X304100Y89100
X334100Y89100
X344100Y89100
X354100Y89100
X364100Y89100
X394100Y89100
X404100Y89100
X414100Y89100
X424100Y89100
X454100Y89100
X464100Y89100
X474100Y89100
X484100Y89100
X514100Y89100
X524100Y89100
X534100Y89100
X544100Y89100
T02
X28600Y20100
X69600Y20100
X88600Y20100
X129600Y20100
X148600Y20100
X189600Y20100
X208600Y20100
X249600Y20100
X268600Y20100
X309600Y20100
X328600Y20100
X369600Y20100
X388600Y20100
X429600Y20100
X448600Y20100
X489600Y20100
X508600Y20100
X549600Y20100
X549600Y123100
X508600Y123100
X489600Y123100
X448600Y123100
X429600Y123100
X388600Y123100
X369600Y123100
X328600Y123100
X309600Y123100
X268600Y123100
X249600Y123100
X208600Y123100
X189600Y123100
X148600Y123100
X129600Y123100
X88600Y123100
X69600Y123100
X28600Y123100
T03
X564100Y71600
X14100Y71600
M30
