%
M48
M72
T01C0.01378
T02C0.02600
T03C0.11600
T04C0.13400
%
T01
X47200Y137200
X47200Y87200
X22200Y77200
X22200Y42200
X94700Y62200
X95950Y129700
T02
X69700Y30950
X69700Y25950
X64700Y25950
X64700Y30950
X59700Y30950
X59700Y25950
X54700Y25950
X54700Y30950
X49700Y30950
X49700Y25950
T03
X97200Y28450
X22200Y28450
T04
X34200Y149300
X85200Y149300
M30
