G75*
%MOIN*%
%OFA0B0*%
%FSLAX25Y25*%
%IPPOS*%
%LPD*%
%AMOC8*
5,1,8,0,0,1.08239X$1,22.5*
%
%ADD10C,0.01200*%
%ADD11C,0.00000*%
%ADD12OC8,0.04600*%
%ADD13C,0.01600*%
%ADD14C,0.02578*%
D10*
X0009700Y0022200D02*
X0009700Y0152200D01*
X0009704Y0152502D01*
X0009715Y0152804D01*
X0009733Y0153105D01*
X0009758Y0153406D01*
X0009791Y0153707D01*
X0009831Y0154006D01*
X0009878Y0154304D01*
X0009933Y0154602D01*
X0009994Y0154897D01*
X0010063Y0155191D01*
X0010139Y0155484D01*
X0010222Y0155774D01*
X0010312Y0156063D01*
X0010409Y0156349D01*
X0010512Y0156633D01*
X0010623Y0156914D01*
X0010740Y0157192D01*
X0010864Y0157468D01*
X0010995Y0157740D01*
X0011132Y0158009D01*
X0011275Y0158275D01*
X0011425Y0158537D01*
X0011582Y0158796D01*
X0011744Y0159050D01*
X0011913Y0159301D01*
X0012087Y0159547D01*
X0012268Y0159790D01*
X0012454Y0160027D01*
X0012646Y0160261D01*
X0012844Y0160489D01*
X0013047Y0160713D01*
X0013255Y0160931D01*
X0013469Y0161145D01*
X0013687Y0161353D01*
X0013911Y0161556D01*
X0014139Y0161754D01*
X0014373Y0161946D01*
X0014610Y0162132D01*
X0014853Y0162313D01*
X0015099Y0162487D01*
X0015350Y0162656D01*
X0015604Y0162818D01*
X0015863Y0162975D01*
X0016125Y0163125D01*
X0016391Y0163268D01*
X0016660Y0163405D01*
X0016932Y0163536D01*
X0017208Y0163660D01*
X0017486Y0163777D01*
X0017767Y0163888D01*
X0018051Y0163991D01*
X0018337Y0164088D01*
X0018626Y0164178D01*
X0018916Y0164261D01*
X0019209Y0164337D01*
X0019503Y0164406D01*
X0019798Y0164467D01*
X0020096Y0164522D01*
X0020394Y0164569D01*
X0020693Y0164609D01*
X0020994Y0164642D01*
X0021295Y0164667D01*
X0021596Y0164685D01*
X0021898Y0164696D01*
X0022200Y0164700D01*
X0097200Y0164700D01*
X0097502Y0164696D01*
X0097804Y0164685D01*
X0098105Y0164667D01*
X0098406Y0164642D01*
X0098707Y0164609D01*
X0099006Y0164569D01*
X0099304Y0164522D01*
X0099602Y0164467D01*
X0099897Y0164406D01*
X0100191Y0164337D01*
X0100484Y0164261D01*
X0100774Y0164178D01*
X0101063Y0164088D01*
X0101349Y0163991D01*
X0101633Y0163888D01*
X0101914Y0163777D01*
X0102192Y0163660D01*
X0102468Y0163536D01*
X0102740Y0163405D01*
X0103009Y0163268D01*
X0103275Y0163125D01*
X0103537Y0162975D01*
X0103796Y0162818D01*
X0104050Y0162656D01*
X0104301Y0162487D01*
X0104547Y0162313D01*
X0104790Y0162132D01*
X0105027Y0161946D01*
X0105261Y0161754D01*
X0105489Y0161556D01*
X0105713Y0161353D01*
X0105931Y0161145D01*
X0106145Y0160931D01*
X0106353Y0160713D01*
X0106556Y0160489D01*
X0106754Y0160261D01*
X0106946Y0160027D01*
X0107132Y0159790D01*
X0107313Y0159547D01*
X0107487Y0159301D01*
X0107656Y0159050D01*
X0107818Y0158796D01*
X0107975Y0158537D01*
X0108125Y0158275D01*
X0108268Y0158009D01*
X0108405Y0157740D01*
X0108536Y0157468D01*
X0108660Y0157192D01*
X0108777Y0156914D01*
X0108888Y0156633D01*
X0108991Y0156349D01*
X0109088Y0156063D01*
X0109178Y0155774D01*
X0109261Y0155484D01*
X0109337Y0155191D01*
X0109406Y0154897D01*
X0109467Y0154602D01*
X0109522Y0154304D01*
X0109569Y0154006D01*
X0109609Y0153707D01*
X0109642Y0153406D01*
X0109667Y0153105D01*
X0109685Y0152804D01*
X0109696Y0152502D01*
X0109700Y0152200D01*
X0109700Y0022200D01*
X0109696Y0021898D01*
X0109685Y0021596D01*
X0109667Y0021295D01*
X0109642Y0020994D01*
X0109609Y0020693D01*
X0109569Y0020394D01*
X0109522Y0020096D01*
X0109467Y0019798D01*
X0109406Y0019503D01*
X0109337Y0019209D01*
X0109261Y0018916D01*
X0109178Y0018626D01*
X0109088Y0018337D01*
X0108991Y0018051D01*
X0108888Y0017767D01*
X0108777Y0017486D01*
X0108660Y0017208D01*
X0108536Y0016932D01*
X0108405Y0016660D01*
X0108268Y0016391D01*
X0108125Y0016125D01*
X0107975Y0015863D01*
X0107818Y0015604D01*
X0107656Y0015350D01*
X0107487Y0015099D01*
X0107313Y0014853D01*
X0107132Y0014610D01*
X0106946Y0014373D01*
X0106754Y0014139D01*
X0106556Y0013911D01*
X0106353Y0013687D01*
X0106145Y0013469D01*
X0105931Y0013255D01*
X0105713Y0013047D01*
X0105489Y0012844D01*
X0105261Y0012646D01*
X0105027Y0012454D01*
X0104790Y0012268D01*
X0104547Y0012087D01*
X0104301Y0011913D01*
X0104050Y0011744D01*
X0103796Y0011582D01*
X0103537Y0011425D01*
X0103275Y0011275D01*
X0103009Y0011132D01*
X0102740Y0010995D01*
X0102468Y0010864D01*
X0102192Y0010740D01*
X0101914Y0010623D01*
X0101633Y0010512D01*
X0101349Y0010409D01*
X0101063Y0010312D01*
X0100774Y0010222D01*
X0100484Y0010139D01*
X0100191Y0010063D01*
X0099897Y0009994D01*
X0099602Y0009933D01*
X0099304Y0009878D01*
X0099006Y0009831D01*
X0098707Y0009791D01*
X0098406Y0009758D01*
X0098105Y0009733D01*
X0097804Y0009715D01*
X0097502Y0009704D01*
X0097200Y0009700D01*
X0022200Y0009700D01*
X0021898Y0009704D01*
X0021596Y0009715D01*
X0021295Y0009733D01*
X0020994Y0009758D01*
X0020693Y0009791D01*
X0020394Y0009831D01*
X0020096Y0009878D01*
X0019798Y0009933D01*
X0019503Y0009994D01*
X0019209Y0010063D01*
X0018916Y0010139D01*
X0018626Y0010222D01*
X0018337Y0010312D01*
X0018051Y0010409D01*
X0017767Y0010512D01*
X0017486Y0010623D01*
X0017208Y0010740D01*
X0016932Y0010864D01*
X0016660Y0010995D01*
X0016391Y0011132D01*
X0016125Y0011275D01*
X0015863Y0011425D01*
X0015604Y0011582D01*
X0015350Y0011744D01*
X0015099Y0011913D01*
X0014853Y0012087D01*
X0014610Y0012268D01*
X0014373Y0012454D01*
X0014139Y0012646D01*
X0013911Y0012844D01*
X0013687Y0013047D01*
X0013469Y0013255D01*
X0013255Y0013469D01*
X0013047Y0013687D01*
X0012844Y0013911D01*
X0012646Y0014139D01*
X0012454Y0014373D01*
X0012268Y0014610D01*
X0012087Y0014853D01*
X0011913Y0015099D01*
X0011744Y0015350D01*
X0011582Y0015604D01*
X0011425Y0015863D01*
X0011275Y0016125D01*
X0011132Y0016391D01*
X0010995Y0016660D01*
X0010864Y0016932D01*
X0010740Y0017208D01*
X0010623Y0017486D01*
X0010512Y0017767D01*
X0010409Y0018051D01*
X0010312Y0018337D01*
X0010222Y0018626D01*
X0010139Y0018916D01*
X0010063Y0019209D01*
X0009994Y0019503D01*
X0009933Y0019798D01*
X0009878Y0020096D01*
X0009831Y0020394D01*
X0009791Y0020693D01*
X0009758Y0020994D01*
X0009733Y0021295D01*
X0009715Y0021596D01*
X0009704Y0021898D01*
X0009700Y0022200D01*
D11*
X0016400Y0028450D02*
X0016402Y0028602D01*
X0016408Y0028754D01*
X0016418Y0028905D01*
X0016432Y0029056D01*
X0016450Y0029207D01*
X0016471Y0029357D01*
X0016497Y0029507D01*
X0016527Y0029656D01*
X0016560Y0029804D01*
X0016598Y0029951D01*
X0016639Y0030097D01*
X0016684Y0030242D01*
X0016733Y0030386D01*
X0016785Y0030529D01*
X0016841Y0030670D01*
X0016901Y0030809D01*
X0016965Y0030947D01*
X0017032Y0031083D01*
X0017103Y0031218D01*
X0017177Y0031350D01*
X0017255Y0031480D01*
X0017336Y0031609D01*
X0017420Y0031735D01*
X0017508Y0031859D01*
X0017599Y0031981D01*
X0017693Y0032100D01*
X0017790Y0032217D01*
X0017890Y0032331D01*
X0017993Y0032442D01*
X0018099Y0032551D01*
X0018208Y0032657D01*
X0018319Y0032760D01*
X0018433Y0032860D01*
X0018550Y0032957D01*
X0018669Y0033051D01*
X0018791Y0033142D01*
X0018915Y0033230D01*
X0019041Y0033314D01*
X0019170Y0033395D01*
X0019300Y0033473D01*
X0019432Y0033547D01*
X0019567Y0033618D01*
X0019703Y0033685D01*
X0019841Y0033749D01*
X0019980Y0033809D01*
X0020121Y0033865D01*
X0020264Y0033917D01*
X0020408Y0033966D01*
X0020553Y0034011D01*
X0020699Y0034052D01*
X0020846Y0034090D01*
X0020994Y0034123D01*
X0021143Y0034153D01*
X0021293Y0034179D01*
X0021443Y0034200D01*
X0021594Y0034218D01*
X0021745Y0034232D01*
X0021896Y0034242D01*
X0022048Y0034248D01*
X0022200Y0034250D01*
X0022352Y0034248D01*
X0022504Y0034242D01*
X0022655Y0034232D01*
X0022806Y0034218D01*
X0022957Y0034200D01*
X0023107Y0034179D01*
X0023257Y0034153D01*
X0023406Y0034123D01*
X0023554Y0034090D01*
X0023701Y0034052D01*
X0023847Y0034011D01*
X0023992Y0033966D01*
X0024136Y0033917D01*
X0024279Y0033865D01*
X0024420Y0033809D01*
X0024559Y0033749D01*
X0024697Y0033685D01*
X0024833Y0033618D01*
X0024968Y0033547D01*
X0025100Y0033473D01*
X0025230Y0033395D01*
X0025359Y0033314D01*
X0025485Y0033230D01*
X0025609Y0033142D01*
X0025731Y0033051D01*
X0025850Y0032957D01*
X0025967Y0032860D01*
X0026081Y0032760D01*
X0026192Y0032657D01*
X0026301Y0032551D01*
X0026407Y0032442D01*
X0026510Y0032331D01*
X0026610Y0032217D01*
X0026707Y0032100D01*
X0026801Y0031981D01*
X0026892Y0031859D01*
X0026980Y0031735D01*
X0027064Y0031609D01*
X0027145Y0031480D01*
X0027223Y0031350D01*
X0027297Y0031218D01*
X0027368Y0031083D01*
X0027435Y0030947D01*
X0027499Y0030809D01*
X0027559Y0030670D01*
X0027615Y0030529D01*
X0027667Y0030386D01*
X0027716Y0030242D01*
X0027761Y0030097D01*
X0027802Y0029951D01*
X0027840Y0029804D01*
X0027873Y0029656D01*
X0027903Y0029507D01*
X0027929Y0029357D01*
X0027950Y0029207D01*
X0027968Y0029056D01*
X0027982Y0028905D01*
X0027992Y0028754D01*
X0027998Y0028602D01*
X0028000Y0028450D01*
X0027998Y0028298D01*
X0027992Y0028146D01*
X0027982Y0027995D01*
X0027968Y0027844D01*
X0027950Y0027693D01*
X0027929Y0027543D01*
X0027903Y0027393D01*
X0027873Y0027244D01*
X0027840Y0027096D01*
X0027802Y0026949D01*
X0027761Y0026803D01*
X0027716Y0026658D01*
X0027667Y0026514D01*
X0027615Y0026371D01*
X0027559Y0026230D01*
X0027499Y0026091D01*
X0027435Y0025953D01*
X0027368Y0025817D01*
X0027297Y0025682D01*
X0027223Y0025550D01*
X0027145Y0025420D01*
X0027064Y0025291D01*
X0026980Y0025165D01*
X0026892Y0025041D01*
X0026801Y0024919D01*
X0026707Y0024800D01*
X0026610Y0024683D01*
X0026510Y0024569D01*
X0026407Y0024458D01*
X0026301Y0024349D01*
X0026192Y0024243D01*
X0026081Y0024140D01*
X0025967Y0024040D01*
X0025850Y0023943D01*
X0025731Y0023849D01*
X0025609Y0023758D01*
X0025485Y0023670D01*
X0025359Y0023586D01*
X0025230Y0023505D01*
X0025100Y0023427D01*
X0024968Y0023353D01*
X0024833Y0023282D01*
X0024697Y0023215D01*
X0024559Y0023151D01*
X0024420Y0023091D01*
X0024279Y0023035D01*
X0024136Y0022983D01*
X0023992Y0022934D01*
X0023847Y0022889D01*
X0023701Y0022848D01*
X0023554Y0022810D01*
X0023406Y0022777D01*
X0023257Y0022747D01*
X0023107Y0022721D01*
X0022957Y0022700D01*
X0022806Y0022682D01*
X0022655Y0022668D01*
X0022504Y0022658D01*
X0022352Y0022652D01*
X0022200Y0022650D01*
X0022048Y0022652D01*
X0021896Y0022658D01*
X0021745Y0022668D01*
X0021594Y0022682D01*
X0021443Y0022700D01*
X0021293Y0022721D01*
X0021143Y0022747D01*
X0020994Y0022777D01*
X0020846Y0022810D01*
X0020699Y0022848D01*
X0020553Y0022889D01*
X0020408Y0022934D01*
X0020264Y0022983D01*
X0020121Y0023035D01*
X0019980Y0023091D01*
X0019841Y0023151D01*
X0019703Y0023215D01*
X0019567Y0023282D01*
X0019432Y0023353D01*
X0019300Y0023427D01*
X0019170Y0023505D01*
X0019041Y0023586D01*
X0018915Y0023670D01*
X0018791Y0023758D01*
X0018669Y0023849D01*
X0018550Y0023943D01*
X0018433Y0024040D01*
X0018319Y0024140D01*
X0018208Y0024243D01*
X0018099Y0024349D01*
X0017993Y0024458D01*
X0017890Y0024569D01*
X0017790Y0024683D01*
X0017693Y0024800D01*
X0017599Y0024919D01*
X0017508Y0025041D01*
X0017420Y0025165D01*
X0017336Y0025291D01*
X0017255Y0025420D01*
X0017177Y0025550D01*
X0017103Y0025682D01*
X0017032Y0025817D01*
X0016965Y0025953D01*
X0016901Y0026091D01*
X0016841Y0026230D01*
X0016785Y0026371D01*
X0016733Y0026514D01*
X0016684Y0026658D01*
X0016639Y0026803D01*
X0016598Y0026949D01*
X0016560Y0027096D01*
X0016527Y0027244D01*
X0016497Y0027393D01*
X0016471Y0027543D01*
X0016450Y0027693D01*
X0016432Y0027844D01*
X0016418Y0027995D01*
X0016408Y0028146D01*
X0016402Y0028298D01*
X0016400Y0028450D01*
X0091400Y0028450D02*
X0091402Y0028602D01*
X0091408Y0028754D01*
X0091418Y0028905D01*
X0091432Y0029056D01*
X0091450Y0029207D01*
X0091471Y0029357D01*
X0091497Y0029507D01*
X0091527Y0029656D01*
X0091560Y0029804D01*
X0091598Y0029951D01*
X0091639Y0030097D01*
X0091684Y0030242D01*
X0091733Y0030386D01*
X0091785Y0030529D01*
X0091841Y0030670D01*
X0091901Y0030809D01*
X0091965Y0030947D01*
X0092032Y0031083D01*
X0092103Y0031218D01*
X0092177Y0031350D01*
X0092255Y0031480D01*
X0092336Y0031609D01*
X0092420Y0031735D01*
X0092508Y0031859D01*
X0092599Y0031981D01*
X0092693Y0032100D01*
X0092790Y0032217D01*
X0092890Y0032331D01*
X0092993Y0032442D01*
X0093099Y0032551D01*
X0093208Y0032657D01*
X0093319Y0032760D01*
X0093433Y0032860D01*
X0093550Y0032957D01*
X0093669Y0033051D01*
X0093791Y0033142D01*
X0093915Y0033230D01*
X0094041Y0033314D01*
X0094170Y0033395D01*
X0094300Y0033473D01*
X0094432Y0033547D01*
X0094567Y0033618D01*
X0094703Y0033685D01*
X0094841Y0033749D01*
X0094980Y0033809D01*
X0095121Y0033865D01*
X0095264Y0033917D01*
X0095408Y0033966D01*
X0095553Y0034011D01*
X0095699Y0034052D01*
X0095846Y0034090D01*
X0095994Y0034123D01*
X0096143Y0034153D01*
X0096293Y0034179D01*
X0096443Y0034200D01*
X0096594Y0034218D01*
X0096745Y0034232D01*
X0096896Y0034242D01*
X0097048Y0034248D01*
X0097200Y0034250D01*
X0097352Y0034248D01*
X0097504Y0034242D01*
X0097655Y0034232D01*
X0097806Y0034218D01*
X0097957Y0034200D01*
X0098107Y0034179D01*
X0098257Y0034153D01*
X0098406Y0034123D01*
X0098554Y0034090D01*
X0098701Y0034052D01*
X0098847Y0034011D01*
X0098992Y0033966D01*
X0099136Y0033917D01*
X0099279Y0033865D01*
X0099420Y0033809D01*
X0099559Y0033749D01*
X0099697Y0033685D01*
X0099833Y0033618D01*
X0099968Y0033547D01*
X0100100Y0033473D01*
X0100230Y0033395D01*
X0100359Y0033314D01*
X0100485Y0033230D01*
X0100609Y0033142D01*
X0100731Y0033051D01*
X0100850Y0032957D01*
X0100967Y0032860D01*
X0101081Y0032760D01*
X0101192Y0032657D01*
X0101301Y0032551D01*
X0101407Y0032442D01*
X0101510Y0032331D01*
X0101610Y0032217D01*
X0101707Y0032100D01*
X0101801Y0031981D01*
X0101892Y0031859D01*
X0101980Y0031735D01*
X0102064Y0031609D01*
X0102145Y0031480D01*
X0102223Y0031350D01*
X0102297Y0031218D01*
X0102368Y0031083D01*
X0102435Y0030947D01*
X0102499Y0030809D01*
X0102559Y0030670D01*
X0102615Y0030529D01*
X0102667Y0030386D01*
X0102716Y0030242D01*
X0102761Y0030097D01*
X0102802Y0029951D01*
X0102840Y0029804D01*
X0102873Y0029656D01*
X0102903Y0029507D01*
X0102929Y0029357D01*
X0102950Y0029207D01*
X0102968Y0029056D01*
X0102982Y0028905D01*
X0102992Y0028754D01*
X0102998Y0028602D01*
X0103000Y0028450D01*
X0102998Y0028298D01*
X0102992Y0028146D01*
X0102982Y0027995D01*
X0102968Y0027844D01*
X0102950Y0027693D01*
X0102929Y0027543D01*
X0102903Y0027393D01*
X0102873Y0027244D01*
X0102840Y0027096D01*
X0102802Y0026949D01*
X0102761Y0026803D01*
X0102716Y0026658D01*
X0102667Y0026514D01*
X0102615Y0026371D01*
X0102559Y0026230D01*
X0102499Y0026091D01*
X0102435Y0025953D01*
X0102368Y0025817D01*
X0102297Y0025682D01*
X0102223Y0025550D01*
X0102145Y0025420D01*
X0102064Y0025291D01*
X0101980Y0025165D01*
X0101892Y0025041D01*
X0101801Y0024919D01*
X0101707Y0024800D01*
X0101610Y0024683D01*
X0101510Y0024569D01*
X0101407Y0024458D01*
X0101301Y0024349D01*
X0101192Y0024243D01*
X0101081Y0024140D01*
X0100967Y0024040D01*
X0100850Y0023943D01*
X0100731Y0023849D01*
X0100609Y0023758D01*
X0100485Y0023670D01*
X0100359Y0023586D01*
X0100230Y0023505D01*
X0100100Y0023427D01*
X0099968Y0023353D01*
X0099833Y0023282D01*
X0099697Y0023215D01*
X0099559Y0023151D01*
X0099420Y0023091D01*
X0099279Y0023035D01*
X0099136Y0022983D01*
X0098992Y0022934D01*
X0098847Y0022889D01*
X0098701Y0022848D01*
X0098554Y0022810D01*
X0098406Y0022777D01*
X0098257Y0022747D01*
X0098107Y0022721D01*
X0097957Y0022700D01*
X0097806Y0022682D01*
X0097655Y0022668D01*
X0097504Y0022658D01*
X0097352Y0022652D01*
X0097200Y0022650D01*
X0097048Y0022652D01*
X0096896Y0022658D01*
X0096745Y0022668D01*
X0096594Y0022682D01*
X0096443Y0022700D01*
X0096293Y0022721D01*
X0096143Y0022747D01*
X0095994Y0022777D01*
X0095846Y0022810D01*
X0095699Y0022848D01*
X0095553Y0022889D01*
X0095408Y0022934D01*
X0095264Y0022983D01*
X0095121Y0023035D01*
X0094980Y0023091D01*
X0094841Y0023151D01*
X0094703Y0023215D01*
X0094567Y0023282D01*
X0094432Y0023353D01*
X0094300Y0023427D01*
X0094170Y0023505D01*
X0094041Y0023586D01*
X0093915Y0023670D01*
X0093791Y0023758D01*
X0093669Y0023849D01*
X0093550Y0023943D01*
X0093433Y0024040D01*
X0093319Y0024140D01*
X0093208Y0024243D01*
X0093099Y0024349D01*
X0092993Y0024458D01*
X0092890Y0024569D01*
X0092790Y0024683D01*
X0092693Y0024800D01*
X0092599Y0024919D01*
X0092508Y0025041D01*
X0092420Y0025165D01*
X0092336Y0025291D01*
X0092255Y0025420D01*
X0092177Y0025550D01*
X0092103Y0025682D01*
X0092032Y0025817D01*
X0091965Y0025953D01*
X0091901Y0026091D01*
X0091841Y0026230D01*
X0091785Y0026371D01*
X0091733Y0026514D01*
X0091684Y0026658D01*
X0091639Y0026803D01*
X0091598Y0026949D01*
X0091560Y0027096D01*
X0091527Y0027244D01*
X0091497Y0027393D01*
X0091471Y0027543D01*
X0091450Y0027693D01*
X0091432Y0027844D01*
X0091418Y0027995D01*
X0091408Y0028146D01*
X0091402Y0028298D01*
X0091400Y0028450D01*
X0078500Y0149300D02*
X0078502Y0149464D01*
X0078508Y0149629D01*
X0078518Y0149793D01*
X0078532Y0149957D01*
X0078550Y0150120D01*
X0078573Y0150283D01*
X0078599Y0150445D01*
X0078629Y0150607D01*
X0078663Y0150768D01*
X0078701Y0150928D01*
X0078743Y0151087D01*
X0078788Y0151245D01*
X0078838Y0151402D01*
X0078892Y0151557D01*
X0078949Y0151711D01*
X0079010Y0151864D01*
X0079075Y0152015D01*
X0079143Y0152165D01*
X0079215Y0152312D01*
X0079291Y0152458D01*
X0079370Y0152602D01*
X0079453Y0152744D01*
X0079539Y0152884D01*
X0079629Y0153022D01*
X0079722Y0153158D01*
X0079819Y0153291D01*
X0079918Y0153422D01*
X0080021Y0153550D01*
X0080127Y0153676D01*
X0080236Y0153799D01*
X0080348Y0153920D01*
X0080462Y0154038D01*
X0080580Y0154152D01*
X0080701Y0154264D01*
X0080824Y0154373D01*
X0080950Y0154479D01*
X0081078Y0154582D01*
X0081209Y0154681D01*
X0081342Y0154778D01*
X0081478Y0154871D01*
X0081616Y0154961D01*
X0081756Y0155047D01*
X0081898Y0155130D01*
X0082042Y0155209D01*
X0082188Y0155285D01*
X0082335Y0155357D01*
X0082485Y0155425D01*
X0082636Y0155490D01*
X0082789Y0155551D01*
X0082943Y0155608D01*
X0083098Y0155662D01*
X0083255Y0155712D01*
X0083413Y0155757D01*
X0083572Y0155799D01*
X0083732Y0155837D01*
X0083893Y0155871D01*
X0084055Y0155901D01*
X0084217Y0155927D01*
X0084380Y0155950D01*
X0084543Y0155968D01*
X0084707Y0155982D01*
X0084871Y0155992D01*
X0085036Y0155998D01*
X0085200Y0156000D01*
X0085364Y0155998D01*
X0085529Y0155992D01*
X0085693Y0155982D01*
X0085857Y0155968D01*
X0086020Y0155950D01*
X0086183Y0155927D01*
X0086345Y0155901D01*
X0086507Y0155871D01*
X0086668Y0155837D01*
X0086828Y0155799D01*
X0086987Y0155757D01*
X0087145Y0155712D01*
X0087302Y0155662D01*
X0087457Y0155608D01*
X0087611Y0155551D01*
X0087764Y0155490D01*
X0087915Y0155425D01*
X0088065Y0155357D01*
X0088212Y0155285D01*
X0088358Y0155209D01*
X0088502Y0155130D01*
X0088644Y0155047D01*
X0088784Y0154961D01*
X0088922Y0154871D01*
X0089058Y0154778D01*
X0089191Y0154681D01*
X0089322Y0154582D01*
X0089450Y0154479D01*
X0089576Y0154373D01*
X0089699Y0154264D01*
X0089820Y0154152D01*
X0089938Y0154038D01*
X0090052Y0153920D01*
X0090164Y0153799D01*
X0090273Y0153676D01*
X0090379Y0153550D01*
X0090482Y0153422D01*
X0090581Y0153291D01*
X0090678Y0153158D01*
X0090771Y0153022D01*
X0090861Y0152884D01*
X0090947Y0152744D01*
X0091030Y0152602D01*
X0091109Y0152458D01*
X0091185Y0152312D01*
X0091257Y0152165D01*
X0091325Y0152015D01*
X0091390Y0151864D01*
X0091451Y0151711D01*
X0091508Y0151557D01*
X0091562Y0151402D01*
X0091612Y0151245D01*
X0091657Y0151087D01*
X0091699Y0150928D01*
X0091737Y0150768D01*
X0091771Y0150607D01*
X0091801Y0150445D01*
X0091827Y0150283D01*
X0091850Y0150120D01*
X0091868Y0149957D01*
X0091882Y0149793D01*
X0091892Y0149629D01*
X0091898Y0149464D01*
X0091900Y0149300D01*
X0091898Y0149136D01*
X0091892Y0148971D01*
X0091882Y0148807D01*
X0091868Y0148643D01*
X0091850Y0148480D01*
X0091827Y0148317D01*
X0091801Y0148155D01*
X0091771Y0147993D01*
X0091737Y0147832D01*
X0091699Y0147672D01*
X0091657Y0147513D01*
X0091612Y0147355D01*
X0091562Y0147198D01*
X0091508Y0147043D01*
X0091451Y0146889D01*
X0091390Y0146736D01*
X0091325Y0146585D01*
X0091257Y0146435D01*
X0091185Y0146288D01*
X0091109Y0146142D01*
X0091030Y0145998D01*
X0090947Y0145856D01*
X0090861Y0145716D01*
X0090771Y0145578D01*
X0090678Y0145442D01*
X0090581Y0145309D01*
X0090482Y0145178D01*
X0090379Y0145050D01*
X0090273Y0144924D01*
X0090164Y0144801D01*
X0090052Y0144680D01*
X0089938Y0144562D01*
X0089820Y0144448D01*
X0089699Y0144336D01*
X0089576Y0144227D01*
X0089450Y0144121D01*
X0089322Y0144018D01*
X0089191Y0143919D01*
X0089058Y0143822D01*
X0088922Y0143729D01*
X0088784Y0143639D01*
X0088644Y0143553D01*
X0088502Y0143470D01*
X0088358Y0143391D01*
X0088212Y0143315D01*
X0088065Y0143243D01*
X0087915Y0143175D01*
X0087764Y0143110D01*
X0087611Y0143049D01*
X0087457Y0142992D01*
X0087302Y0142938D01*
X0087145Y0142888D01*
X0086987Y0142843D01*
X0086828Y0142801D01*
X0086668Y0142763D01*
X0086507Y0142729D01*
X0086345Y0142699D01*
X0086183Y0142673D01*
X0086020Y0142650D01*
X0085857Y0142632D01*
X0085693Y0142618D01*
X0085529Y0142608D01*
X0085364Y0142602D01*
X0085200Y0142600D01*
X0085036Y0142602D01*
X0084871Y0142608D01*
X0084707Y0142618D01*
X0084543Y0142632D01*
X0084380Y0142650D01*
X0084217Y0142673D01*
X0084055Y0142699D01*
X0083893Y0142729D01*
X0083732Y0142763D01*
X0083572Y0142801D01*
X0083413Y0142843D01*
X0083255Y0142888D01*
X0083098Y0142938D01*
X0082943Y0142992D01*
X0082789Y0143049D01*
X0082636Y0143110D01*
X0082485Y0143175D01*
X0082335Y0143243D01*
X0082188Y0143315D01*
X0082042Y0143391D01*
X0081898Y0143470D01*
X0081756Y0143553D01*
X0081616Y0143639D01*
X0081478Y0143729D01*
X0081342Y0143822D01*
X0081209Y0143919D01*
X0081078Y0144018D01*
X0080950Y0144121D01*
X0080824Y0144227D01*
X0080701Y0144336D01*
X0080580Y0144448D01*
X0080462Y0144562D01*
X0080348Y0144680D01*
X0080236Y0144801D01*
X0080127Y0144924D01*
X0080021Y0145050D01*
X0079918Y0145178D01*
X0079819Y0145309D01*
X0079722Y0145442D01*
X0079629Y0145578D01*
X0079539Y0145716D01*
X0079453Y0145856D01*
X0079370Y0145998D01*
X0079291Y0146142D01*
X0079215Y0146288D01*
X0079143Y0146435D01*
X0079075Y0146585D01*
X0079010Y0146736D01*
X0078949Y0146889D01*
X0078892Y0147043D01*
X0078838Y0147198D01*
X0078788Y0147355D01*
X0078743Y0147513D01*
X0078701Y0147672D01*
X0078663Y0147832D01*
X0078629Y0147993D01*
X0078599Y0148155D01*
X0078573Y0148317D01*
X0078550Y0148480D01*
X0078532Y0148643D01*
X0078518Y0148807D01*
X0078508Y0148971D01*
X0078502Y0149136D01*
X0078500Y0149300D01*
X0027500Y0149300D02*
X0027502Y0149464D01*
X0027508Y0149629D01*
X0027518Y0149793D01*
X0027532Y0149957D01*
X0027550Y0150120D01*
X0027573Y0150283D01*
X0027599Y0150445D01*
X0027629Y0150607D01*
X0027663Y0150768D01*
X0027701Y0150928D01*
X0027743Y0151087D01*
X0027788Y0151245D01*
X0027838Y0151402D01*
X0027892Y0151557D01*
X0027949Y0151711D01*
X0028010Y0151864D01*
X0028075Y0152015D01*
X0028143Y0152165D01*
X0028215Y0152312D01*
X0028291Y0152458D01*
X0028370Y0152602D01*
X0028453Y0152744D01*
X0028539Y0152884D01*
X0028629Y0153022D01*
X0028722Y0153158D01*
X0028819Y0153291D01*
X0028918Y0153422D01*
X0029021Y0153550D01*
X0029127Y0153676D01*
X0029236Y0153799D01*
X0029348Y0153920D01*
X0029462Y0154038D01*
X0029580Y0154152D01*
X0029701Y0154264D01*
X0029824Y0154373D01*
X0029950Y0154479D01*
X0030078Y0154582D01*
X0030209Y0154681D01*
X0030342Y0154778D01*
X0030478Y0154871D01*
X0030616Y0154961D01*
X0030756Y0155047D01*
X0030898Y0155130D01*
X0031042Y0155209D01*
X0031188Y0155285D01*
X0031335Y0155357D01*
X0031485Y0155425D01*
X0031636Y0155490D01*
X0031789Y0155551D01*
X0031943Y0155608D01*
X0032098Y0155662D01*
X0032255Y0155712D01*
X0032413Y0155757D01*
X0032572Y0155799D01*
X0032732Y0155837D01*
X0032893Y0155871D01*
X0033055Y0155901D01*
X0033217Y0155927D01*
X0033380Y0155950D01*
X0033543Y0155968D01*
X0033707Y0155982D01*
X0033871Y0155992D01*
X0034036Y0155998D01*
X0034200Y0156000D01*
X0034364Y0155998D01*
X0034529Y0155992D01*
X0034693Y0155982D01*
X0034857Y0155968D01*
X0035020Y0155950D01*
X0035183Y0155927D01*
X0035345Y0155901D01*
X0035507Y0155871D01*
X0035668Y0155837D01*
X0035828Y0155799D01*
X0035987Y0155757D01*
X0036145Y0155712D01*
X0036302Y0155662D01*
X0036457Y0155608D01*
X0036611Y0155551D01*
X0036764Y0155490D01*
X0036915Y0155425D01*
X0037065Y0155357D01*
X0037212Y0155285D01*
X0037358Y0155209D01*
X0037502Y0155130D01*
X0037644Y0155047D01*
X0037784Y0154961D01*
X0037922Y0154871D01*
X0038058Y0154778D01*
X0038191Y0154681D01*
X0038322Y0154582D01*
X0038450Y0154479D01*
X0038576Y0154373D01*
X0038699Y0154264D01*
X0038820Y0154152D01*
X0038938Y0154038D01*
X0039052Y0153920D01*
X0039164Y0153799D01*
X0039273Y0153676D01*
X0039379Y0153550D01*
X0039482Y0153422D01*
X0039581Y0153291D01*
X0039678Y0153158D01*
X0039771Y0153022D01*
X0039861Y0152884D01*
X0039947Y0152744D01*
X0040030Y0152602D01*
X0040109Y0152458D01*
X0040185Y0152312D01*
X0040257Y0152165D01*
X0040325Y0152015D01*
X0040390Y0151864D01*
X0040451Y0151711D01*
X0040508Y0151557D01*
X0040562Y0151402D01*
X0040612Y0151245D01*
X0040657Y0151087D01*
X0040699Y0150928D01*
X0040737Y0150768D01*
X0040771Y0150607D01*
X0040801Y0150445D01*
X0040827Y0150283D01*
X0040850Y0150120D01*
X0040868Y0149957D01*
X0040882Y0149793D01*
X0040892Y0149629D01*
X0040898Y0149464D01*
X0040900Y0149300D01*
X0040898Y0149136D01*
X0040892Y0148971D01*
X0040882Y0148807D01*
X0040868Y0148643D01*
X0040850Y0148480D01*
X0040827Y0148317D01*
X0040801Y0148155D01*
X0040771Y0147993D01*
X0040737Y0147832D01*
X0040699Y0147672D01*
X0040657Y0147513D01*
X0040612Y0147355D01*
X0040562Y0147198D01*
X0040508Y0147043D01*
X0040451Y0146889D01*
X0040390Y0146736D01*
X0040325Y0146585D01*
X0040257Y0146435D01*
X0040185Y0146288D01*
X0040109Y0146142D01*
X0040030Y0145998D01*
X0039947Y0145856D01*
X0039861Y0145716D01*
X0039771Y0145578D01*
X0039678Y0145442D01*
X0039581Y0145309D01*
X0039482Y0145178D01*
X0039379Y0145050D01*
X0039273Y0144924D01*
X0039164Y0144801D01*
X0039052Y0144680D01*
X0038938Y0144562D01*
X0038820Y0144448D01*
X0038699Y0144336D01*
X0038576Y0144227D01*
X0038450Y0144121D01*
X0038322Y0144018D01*
X0038191Y0143919D01*
X0038058Y0143822D01*
X0037922Y0143729D01*
X0037784Y0143639D01*
X0037644Y0143553D01*
X0037502Y0143470D01*
X0037358Y0143391D01*
X0037212Y0143315D01*
X0037065Y0143243D01*
X0036915Y0143175D01*
X0036764Y0143110D01*
X0036611Y0143049D01*
X0036457Y0142992D01*
X0036302Y0142938D01*
X0036145Y0142888D01*
X0035987Y0142843D01*
X0035828Y0142801D01*
X0035668Y0142763D01*
X0035507Y0142729D01*
X0035345Y0142699D01*
X0035183Y0142673D01*
X0035020Y0142650D01*
X0034857Y0142632D01*
X0034693Y0142618D01*
X0034529Y0142608D01*
X0034364Y0142602D01*
X0034200Y0142600D01*
X0034036Y0142602D01*
X0033871Y0142608D01*
X0033707Y0142618D01*
X0033543Y0142632D01*
X0033380Y0142650D01*
X0033217Y0142673D01*
X0033055Y0142699D01*
X0032893Y0142729D01*
X0032732Y0142763D01*
X0032572Y0142801D01*
X0032413Y0142843D01*
X0032255Y0142888D01*
X0032098Y0142938D01*
X0031943Y0142992D01*
X0031789Y0143049D01*
X0031636Y0143110D01*
X0031485Y0143175D01*
X0031335Y0143243D01*
X0031188Y0143315D01*
X0031042Y0143391D01*
X0030898Y0143470D01*
X0030756Y0143553D01*
X0030616Y0143639D01*
X0030478Y0143729D01*
X0030342Y0143822D01*
X0030209Y0143919D01*
X0030078Y0144018D01*
X0029950Y0144121D01*
X0029824Y0144227D01*
X0029701Y0144336D01*
X0029580Y0144448D01*
X0029462Y0144562D01*
X0029348Y0144680D01*
X0029236Y0144801D01*
X0029127Y0144924D01*
X0029021Y0145050D01*
X0028918Y0145178D01*
X0028819Y0145309D01*
X0028722Y0145442D01*
X0028629Y0145578D01*
X0028539Y0145716D01*
X0028453Y0145856D01*
X0028370Y0145998D01*
X0028291Y0146142D01*
X0028215Y0146288D01*
X0028143Y0146435D01*
X0028075Y0146585D01*
X0028010Y0146736D01*
X0027949Y0146889D01*
X0027892Y0147043D01*
X0027838Y0147198D01*
X0027788Y0147355D01*
X0027743Y0147513D01*
X0027701Y0147672D01*
X0027663Y0147832D01*
X0027629Y0147993D01*
X0027599Y0148155D01*
X0027573Y0148317D01*
X0027550Y0148480D01*
X0027532Y0148643D01*
X0027518Y0148807D01*
X0027508Y0148971D01*
X0027502Y0149136D01*
X0027500Y0149300D01*
D12*
X0049700Y0030950D03*
X0049700Y0025950D03*
X0054700Y0025950D03*
X0054700Y0030950D03*
X0059700Y0030950D03*
X0059700Y0025950D03*
X0064700Y0025950D03*
X0064700Y0030950D03*
X0069700Y0030950D03*
X0069700Y0025950D03*
D13*
X0014663Y0016417D02*
X0013423Y0018565D01*
X0012781Y0020960D01*
X0012700Y0022200D01*
X0012700Y0152200D01*
X0012781Y0153440D01*
X0013423Y0155835D01*
X0014663Y0157983D01*
X0016417Y0159737D01*
X0018565Y0160977D01*
X0020960Y0161619D01*
X0022200Y0161700D01*
X0097200Y0161700D01*
X0098440Y0161619D01*
X0100835Y0160977D01*
X0102983Y0159737D01*
X0104737Y0157983D01*
X0105977Y0155835D01*
X0106619Y0153440D01*
X0106700Y0152200D01*
X0106700Y0022200D01*
X0106619Y0020960D01*
X0105977Y0018564D01*
X0104737Y0016417D01*
X0102983Y0014663D01*
X0100835Y0013423D01*
X0098440Y0012781D01*
X0097200Y0012700D01*
X0022200Y0012700D01*
X0020960Y0012781D01*
X0018565Y0013423D01*
X0016417Y0014663D01*
X0014663Y0016417D01*
X0014986Y0016094D02*
X0104414Y0016094D01*
X0105473Y0017693D02*
X0013927Y0017693D01*
X0013228Y0019291D02*
X0106172Y0019291D01*
X0106600Y0020890D02*
X0100375Y0020890D01*
X0101845Y0021498D02*
X0104152Y0023805D01*
X0105400Y0026819D01*
X0105400Y0030081D01*
X0104152Y0033095D01*
X0101845Y0035402D01*
X0098831Y0036650D01*
X0095569Y0036650D01*
X0092555Y0035402D01*
X0090248Y0033095D01*
X0089000Y0030081D01*
X0089000Y0026819D01*
X0090248Y0023805D01*
X0092555Y0021498D01*
X0095569Y0020250D01*
X0098831Y0020250D01*
X0101845Y0021498D01*
X0102835Y0022488D02*
X0106700Y0022488D01*
X0106700Y0024087D02*
X0104268Y0024087D01*
X0104930Y0025685D02*
X0106700Y0025685D01*
X0106700Y0027284D02*
X0105400Y0027284D01*
X0105400Y0028882D02*
X0106700Y0028882D01*
X0106700Y0030481D02*
X0105234Y0030481D01*
X0104572Y0032079D02*
X0106700Y0032079D01*
X0106700Y0033678D02*
X0103569Y0033678D01*
X0101970Y0035276D02*
X0106700Y0035276D01*
X0106700Y0036875D02*
X0067900Y0036875D01*
X0067900Y0035650D02*
X0067900Y0097125D01*
X0096859Y0126084D01*
X0098040Y0126573D01*
X0099077Y0127610D01*
X0099639Y0128966D01*
X0099639Y0130434D01*
X0099077Y0131790D01*
X0098040Y0132827D01*
X0096684Y0133389D01*
X0095216Y0133389D01*
X0093860Y0132827D01*
X0092823Y0131790D01*
X0092334Y0130609D01*
X0061987Y0100263D01*
X0061500Y0099087D01*
X0061500Y0035650D01*
X0057753Y0035650D01*
X0057200Y0035097D01*
X0056647Y0035650D01*
X0052753Y0035650D01*
X0052200Y0035097D01*
X0051647Y0035650D01*
X0047753Y0035650D01*
X0045000Y0032897D01*
X0045000Y0029003D01*
X0045977Y0028026D01*
X0045600Y0027648D01*
X0045600Y0025950D01*
X0049700Y0025950D01*
X0049700Y0025950D01*
X0049700Y0021850D01*
X0051398Y0021850D01*
X0051776Y0022227D01*
X0052753Y0021250D01*
X0056647Y0021250D01*
X0057200Y0021803D01*
X0057753Y0021250D01*
X0061647Y0021250D01*
X0062200Y0021803D01*
X0062753Y0021250D01*
X0066647Y0021250D01*
X0067200Y0021803D01*
X0067753Y0021250D01*
X0071647Y0021250D01*
X0074400Y0024003D01*
X0074400Y0027897D01*
X0073847Y0028450D01*
X0074400Y0029003D01*
X0074400Y0032897D01*
X0071647Y0035650D01*
X0067900Y0035650D01*
X0067900Y0038473D02*
X0106700Y0038473D01*
X0106700Y0040072D02*
X0067900Y0040072D01*
X0067900Y0041670D02*
X0106700Y0041670D01*
X0106700Y0043269D02*
X0067900Y0043269D01*
X0067900Y0044867D02*
X0106700Y0044867D01*
X0106700Y0046466D02*
X0067900Y0046466D01*
X0067900Y0048064D02*
X0106700Y0048064D01*
X0106700Y0049663D02*
X0067900Y0049663D01*
X0067900Y0051261D02*
X0106700Y0051261D01*
X0106700Y0052860D02*
X0067900Y0052860D01*
X0067900Y0054458D02*
X0106700Y0054458D01*
X0106700Y0056057D02*
X0067900Y0056057D01*
X0067900Y0057655D02*
X0106700Y0057655D01*
X0106700Y0059254D02*
X0067900Y0059254D01*
X0067900Y0060852D02*
X0106700Y0060852D01*
X0106700Y0062451D02*
X0067900Y0062451D01*
X0067900Y0064049D02*
X0106700Y0064049D01*
X0106700Y0065648D02*
X0067900Y0065648D01*
X0067900Y0067246D02*
X0106700Y0067246D01*
X0106700Y0068845D02*
X0067900Y0068845D01*
X0067900Y0070443D02*
X0106700Y0070443D01*
X0106700Y0072042D02*
X0067900Y0072042D01*
X0067900Y0073640D02*
X0106700Y0073640D01*
X0106700Y0075239D02*
X0067900Y0075239D01*
X0067900Y0076837D02*
X0106700Y0076837D01*
X0106700Y0078436D02*
X0067900Y0078436D01*
X0067900Y0080034D02*
X0106700Y0080034D01*
X0106700Y0081633D02*
X0067900Y0081633D01*
X0067900Y0083232D02*
X0106700Y0083232D01*
X0106700Y0084830D02*
X0067900Y0084830D01*
X0067900Y0086429D02*
X0106700Y0086429D01*
X0106700Y0088027D02*
X0067900Y0088027D01*
X0067900Y0089626D02*
X0106700Y0089626D01*
X0106700Y0091224D02*
X0067900Y0091224D01*
X0067900Y0092823D02*
X0106700Y0092823D01*
X0106700Y0094421D02*
X0067900Y0094421D01*
X0067900Y0096020D02*
X0106700Y0096020D01*
X0106700Y0097618D02*
X0068394Y0097618D01*
X0069992Y0099217D02*
X0106700Y0099217D01*
X0106700Y0100815D02*
X0071591Y0100815D01*
X0073189Y0102414D02*
X0106700Y0102414D01*
X0106700Y0104012D02*
X0074788Y0104012D01*
X0076386Y0105611D02*
X0106700Y0105611D01*
X0106700Y0107209D02*
X0077985Y0107209D01*
X0079583Y0108808D02*
X0106700Y0108808D01*
X0106700Y0110406D02*
X0081182Y0110406D01*
X0082780Y0112005D02*
X0106700Y0112005D01*
X0106700Y0113603D02*
X0084379Y0113603D01*
X0085977Y0115202D02*
X0106700Y0115202D01*
X0106700Y0116800D02*
X0087576Y0116800D01*
X0089174Y0118399D02*
X0106700Y0118399D01*
X0106700Y0119997D02*
X0090773Y0119997D01*
X0092371Y0121596D02*
X0106700Y0121596D01*
X0106700Y0123194D02*
X0093970Y0123194D01*
X0095568Y0124793D02*
X0106700Y0124793D01*
X0106700Y0126391D02*
X0097602Y0126391D01*
X0099235Y0127990D02*
X0106700Y0127990D01*
X0106700Y0129588D02*
X0099639Y0129588D01*
X0099327Y0131187D02*
X0106700Y0131187D01*
X0106700Y0132785D02*
X0098082Y0132785D01*
X0095950Y0129700D02*
X0064700Y0098450D01*
X0064700Y0030950D01*
X0061500Y0036875D02*
X0012700Y0036875D01*
X0012700Y0038473D02*
X0061500Y0038473D01*
X0061500Y0040072D02*
X0012700Y0040072D01*
X0012700Y0041670D02*
X0061500Y0041670D01*
X0061500Y0043269D02*
X0012700Y0043269D01*
X0012700Y0044867D02*
X0061500Y0044867D01*
X0061500Y0046466D02*
X0012700Y0046466D01*
X0012700Y0048064D02*
X0061500Y0048064D01*
X0061500Y0049663D02*
X0012700Y0049663D01*
X0012700Y0051261D02*
X0061500Y0051261D01*
X0061500Y0052860D02*
X0012700Y0052860D01*
X0012700Y0054458D02*
X0061500Y0054458D01*
X0061500Y0056057D02*
X0012700Y0056057D01*
X0012700Y0057655D02*
X0061500Y0057655D01*
X0061500Y0059254D02*
X0012700Y0059254D01*
X0012700Y0060852D02*
X0061500Y0060852D01*
X0061500Y0062451D02*
X0012700Y0062451D01*
X0012700Y0064049D02*
X0061500Y0064049D01*
X0061500Y0065648D02*
X0012700Y0065648D01*
X0012700Y0067246D02*
X0061500Y0067246D01*
X0061500Y0068845D02*
X0012700Y0068845D01*
X0012700Y0070443D02*
X0061500Y0070443D01*
X0061500Y0072042D02*
X0012700Y0072042D01*
X0012700Y0073640D02*
X0061500Y0073640D01*
X0061500Y0075239D02*
X0012700Y0075239D01*
X0012700Y0076837D02*
X0061500Y0076837D01*
X0061500Y0078436D02*
X0012700Y0078436D01*
X0012700Y0080034D02*
X0061500Y0080034D01*
X0061500Y0081633D02*
X0012700Y0081633D01*
X0012700Y0083232D02*
X0061500Y0083232D01*
X0061500Y0084830D02*
X0012700Y0084830D01*
X0012700Y0086429D02*
X0061500Y0086429D01*
X0061500Y0088027D02*
X0012700Y0088027D01*
X0012700Y0089626D02*
X0061500Y0089626D01*
X0061500Y0091224D02*
X0012700Y0091224D01*
X0012700Y0092823D02*
X0061500Y0092823D01*
X0061500Y0094421D02*
X0012700Y0094421D01*
X0012700Y0096020D02*
X0061500Y0096020D01*
X0061500Y0097618D02*
X0012700Y0097618D01*
X0012700Y0099217D02*
X0061554Y0099217D01*
X0062540Y0100815D02*
X0012700Y0100815D01*
X0012700Y0102414D02*
X0064138Y0102414D01*
X0065737Y0104012D02*
X0012700Y0104012D01*
X0012700Y0105611D02*
X0067335Y0105611D01*
X0068934Y0107209D02*
X0012700Y0107209D01*
X0012700Y0108808D02*
X0070532Y0108808D01*
X0072131Y0110406D02*
X0012700Y0110406D01*
X0012700Y0112005D02*
X0073729Y0112005D01*
X0075328Y0113603D02*
X0012700Y0113603D01*
X0012700Y0115202D02*
X0076926Y0115202D01*
X0078525Y0116800D02*
X0012700Y0116800D01*
X0012700Y0118399D02*
X0080123Y0118399D01*
X0081722Y0119997D02*
X0012700Y0119997D01*
X0012700Y0121596D02*
X0083320Y0121596D01*
X0084919Y0123194D02*
X0012700Y0123194D01*
X0012700Y0124793D02*
X0086517Y0124793D01*
X0088116Y0126391D02*
X0012700Y0126391D01*
X0012700Y0127990D02*
X0089714Y0127990D01*
X0091313Y0129588D02*
X0012700Y0129588D01*
X0012700Y0131187D02*
X0092573Y0131187D01*
X0093818Y0132785D02*
X0012700Y0132785D01*
X0012700Y0134384D02*
X0106700Y0134384D01*
X0106700Y0135982D02*
X0012700Y0135982D01*
X0012700Y0137581D02*
X0106700Y0137581D01*
X0106700Y0139179D02*
X0012700Y0139179D01*
X0012700Y0140778D02*
X0030995Y0140778D01*
X0032390Y0140200D02*
X0029045Y0141585D01*
X0026485Y0144145D01*
X0025100Y0147490D01*
X0025100Y0151110D01*
X0026485Y0154455D01*
X0029045Y0157015D01*
X0032390Y0158400D01*
X0036010Y0158400D01*
X0039355Y0157015D01*
X0041915Y0154455D01*
X0043300Y0151110D01*
X0043300Y0147490D01*
X0041915Y0144145D01*
X0039355Y0141585D01*
X0036010Y0140200D01*
X0032390Y0140200D01*
X0028254Y0142376D02*
X0012700Y0142376D01*
X0012700Y0143975D02*
X0026656Y0143975D01*
X0025894Y0145573D02*
X0012700Y0145573D01*
X0012700Y0147172D02*
X0025232Y0147172D01*
X0025100Y0148770D02*
X0012700Y0148770D01*
X0012700Y0150369D02*
X0025100Y0150369D01*
X0025455Y0151968D02*
X0012700Y0151968D01*
X0012815Y0153566D02*
X0026117Y0153566D01*
X0027195Y0155165D02*
X0013243Y0155165D01*
X0013959Y0156763D02*
X0028794Y0156763D01*
X0032297Y0158362D02*
X0015041Y0158362D01*
X0016803Y0159960D02*
X0102597Y0159960D01*
X0104359Y0158362D02*
X0087103Y0158362D01*
X0087010Y0158400D02*
X0083390Y0158400D01*
X0080045Y0157015D01*
X0077485Y0154455D01*
X0076100Y0151110D01*
X0076100Y0147490D01*
X0077485Y0144145D01*
X0080045Y0141585D01*
X0083390Y0140200D01*
X0087010Y0140200D01*
X0090355Y0141585D01*
X0092915Y0144145D01*
X0094300Y0147490D01*
X0094300Y0151110D01*
X0092915Y0154455D01*
X0090355Y0157015D01*
X0087010Y0158400D01*
X0083297Y0158362D02*
X0036103Y0158362D01*
X0039606Y0156763D02*
X0079794Y0156763D01*
X0078195Y0155165D02*
X0041205Y0155165D01*
X0042283Y0153566D02*
X0077117Y0153566D01*
X0076455Y0151968D02*
X0042945Y0151968D01*
X0043300Y0150369D02*
X0076100Y0150369D01*
X0076100Y0148770D02*
X0043300Y0148770D01*
X0043168Y0147172D02*
X0076232Y0147172D01*
X0076894Y0145573D02*
X0042506Y0145573D01*
X0041744Y0143975D02*
X0077656Y0143975D01*
X0079254Y0142376D02*
X0040146Y0142376D01*
X0037405Y0140778D02*
X0081995Y0140778D01*
X0088405Y0140778D02*
X0106700Y0140778D01*
X0106700Y0142376D02*
X0091146Y0142376D01*
X0092744Y0143975D02*
X0106700Y0143975D01*
X0106700Y0145573D02*
X0093506Y0145573D01*
X0094168Y0147172D02*
X0106700Y0147172D01*
X0106700Y0148770D02*
X0094300Y0148770D01*
X0094300Y0150369D02*
X0106700Y0150369D01*
X0106700Y0151968D02*
X0093945Y0151968D01*
X0093283Y0153566D02*
X0106585Y0153566D01*
X0106157Y0155165D02*
X0092205Y0155165D01*
X0090606Y0156763D02*
X0105441Y0156763D01*
X0098664Y0161559D02*
X0020736Y0161559D01*
X0020569Y0036650D02*
X0017555Y0035402D01*
X0015248Y0033095D01*
X0014000Y0030081D01*
X0014000Y0026819D01*
X0015248Y0023805D01*
X0017555Y0021498D01*
X0020569Y0020250D01*
X0023831Y0020250D01*
X0026845Y0021498D01*
X0029152Y0023805D01*
X0030400Y0026819D01*
X0030400Y0030081D01*
X0029152Y0033095D01*
X0026845Y0035402D01*
X0023831Y0036650D01*
X0020569Y0036650D01*
X0017430Y0035276D02*
X0012700Y0035276D01*
X0012700Y0033678D02*
X0015831Y0033678D01*
X0014828Y0032079D02*
X0012700Y0032079D01*
X0012700Y0030481D02*
X0014166Y0030481D01*
X0014000Y0028882D02*
X0012700Y0028882D01*
X0012700Y0027284D02*
X0014000Y0027284D01*
X0014470Y0025685D02*
X0012700Y0025685D01*
X0012700Y0024087D02*
X0015132Y0024087D01*
X0016565Y0022488D02*
X0012700Y0022488D01*
X0012800Y0020890D02*
X0019025Y0020890D01*
X0016707Y0014496D02*
X0102693Y0014496D01*
X0098872Y0012897D02*
X0020528Y0012897D01*
X0025375Y0020890D02*
X0094025Y0020890D01*
X0091565Y0022488D02*
X0072885Y0022488D01*
X0074400Y0024087D02*
X0090132Y0024087D01*
X0089470Y0025685D02*
X0074400Y0025685D01*
X0074400Y0027284D02*
X0089000Y0027284D01*
X0089000Y0028882D02*
X0074279Y0028882D01*
X0074400Y0030481D02*
X0089166Y0030481D01*
X0089828Y0032079D02*
X0074400Y0032079D01*
X0073619Y0033678D02*
X0090831Y0033678D01*
X0092430Y0035276D02*
X0072021Y0035276D01*
X0057379Y0035276D02*
X0057021Y0035276D01*
X0052379Y0035276D02*
X0052021Y0035276D01*
X0047379Y0035276D02*
X0026970Y0035276D01*
X0028569Y0033678D02*
X0045781Y0033678D01*
X0045000Y0032079D02*
X0029572Y0032079D01*
X0030234Y0030481D02*
X0045000Y0030481D01*
X0045121Y0028882D02*
X0030400Y0028882D01*
X0030400Y0027284D02*
X0045600Y0027284D01*
X0045600Y0025950D02*
X0045600Y0024252D01*
X0048002Y0021850D01*
X0049700Y0021850D01*
X0049700Y0025950D01*
X0049700Y0025950D01*
X0045600Y0025950D01*
X0045600Y0025685D02*
X0029930Y0025685D01*
X0029268Y0024087D02*
X0045765Y0024087D01*
X0047364Y0022488D02*
X0027835Y0022488D01*
X0049700Y0022488D02*
X0049700Y0022488D01*
X0049700Y0024087D02*
X0049700Y0024087D01*
X0049700Y0025685D02*
X0049700Y0025685D01*
D14*
X0022200Y0042200D03*
X0022200Y0077200D03*
X0047200Y0087200D03*
X0047200Y0137200D03*
X0095950Y0129700D03*
X0094700Y0062200D03*
M02*
