G75*
%MOIN*%
%OFA0B0*%
%FSLAX25Y25*%
%IPPOS*%
%LPD*%
%AMOC8*
5,1,8,0,0,1.08239X$1,22.5*
%
%ADD10C,0.01200*%
%ADD11C,0.00000*%
%ADD12OC8,0.04600*%
%ADD13R,0.06500X0.21000*%
%ADD14R,0.12500X0.05000*%
%ADD15R,0.07098X0.06299*%
%ADD16R,0.07087X0.06299*%
%ADD17R,0.05000X0.12500*%
%ADD18C,0.02578*%
%ADD19C,0.01600*%
%ADD20C,0.02400*%
D10*
X0009700Y0022200D02*
X0009700Y0152200D01*
X0009704Y0152502D01*
X0009715Y0152804D01*
X0009733Y0153105D01*
X0009758Y0153406D01*
X0009791Y0153707D01*
X0009831Y0154006D01*
X0009878Y0154304D01*
X0009933Y0154602D01*
X0009994Y0154897D01*
X0010063Y0155191D01*
X0010139Y0155484D01*
X0010222Y0155774D01*
X0010312Y0156063D01*
X0010409Y0156349D01*
X0010512Y0156633D01*
X0010623Y0156914D01*
X0010740Y0157192D01*
X0010864Y0157468D01*
X0010995Y0157740D01*
X0011132Y0158009D01*
X0011275Y0158275D01*
X0011425Y0158537D01*
X0011582Y0158796D01*
X0011744Y0159050D01*
X0011913Y0159301D01*
X0012087Y0159547D01*
X0012268Y0159790D01*
X0012454Y0160027D01*
X0012646Y0160261D01*
X0012844Y0160489D01*
X0013047Y0160713D01*
X0013255Y0160931D01*
X0013469Y0161145D01*
X0013687Y0161353D01*
X0013911Y0161556D01*
X0014139Y0161754D01*
X0014373Y0161946D01*
X0014610Y0162132D01*
X0014853Y0162313D01*
X0015099Y0162487D01*
X0015350Y0162656D01*
X0015604Y0162818D01*
X0015863Y0162975D01*
X0016125Y0163125D01*
X0016391Y0163268D01*
X0016660Y0163405D01*
X0016932Y0163536D01*
X0017208Y0163660D01*
X0017486Y0163777D01*
X0017767Y0163888D01*
X0018051Y0163991D01*
X0018337Y0164088D01*
X0018626Y0164178D01*
X0018916Y0164261D01*
X0019209Y0164337D01*
X0019503Y0164406D01*
X0019798Y0164467D01*
X0020096Y0164522D01*
X0020394Y0164569D01*
X0020693Y0164609D01*
X0020994Y0164642D01*
X0021295Y0164667D01*
X0021596Y0164685D01*
X0021898Y0164696D01*
X0022200Y0164700D01*
X0097200Y0164700D01*
X0097502Y0164696D01*
X0097804Y0164685D01*
X0098105Y0164667D01*
X0098406Y0164642D01*
X0098707Y0164609D01*
X0099006Y0164569D01*
X0099304Y0164522D01*
X0099602Y0164467D01*
X0099897Y0164406D01*
X0100191Y0164337D01*
X0100484Y0164261D01*
X0100774Y0164178D01*
X0101063Y0164088D01*
X0101349Y0163991D01*
X0101633Y0163888D01*
X0101914Y0163777D01*
X0102192Y0163660D01*
X0102468Y0163536D01*
X0102740Y0163405D01*
X0103009Y0163268D01*
X0103275Y0163125D01*
X0103537Y0162975D01*
X0103796Y0162818D01*
X0104050Y0162656D01*
X0104301Y0162487D01*
X0104547Y0162313D01*
X0104790Y0162132D01*
X0105027Y0161946D01*
X0105261Y0161754D01*
X0105489Y0161556D01*
X0105713Y0161353D01*
X0105931Y0161145D01*
X0106145Y0160931D01*
X0106353Y0160713D01*
X0106556Y0160489D01*
X0106754Y0160261D01*
X0106946Y0160027D01*
X0107132Y0159790D01*
X0107313Y0159547D01*
X0107487Y0159301D01*
X0107656Y0159050D01*
X0107818Y0158796D01*
X0107975Y0158537D01*
X0108125Y0158275D01*
X0108268Y0158009D01*
X0108405Y0157740D01*
X0108536Y0157468D01*
X0108660Y0157192D01*
X0108777Y0156914D01*
X0108888Y0156633D01*
X0108991Y0156349D01*
X0109088Y0156063D01*
X0109178Y0155774D01*
X0109261Y0155484D01*
X0109337Y0155191D01*
X0109406Y0154897D01*
X0109467Y0154602D01*
X0109522Y0154304D01*
X0109569Y0154006D01*
X0109609Y0153707D01*
X0109642Y0153406D01*
X0109667Y0153105D01*
X0109685Y0152804D01*
X0109696Y0152502D01*
X0109700Y0152200D01*
X0109700Y0022200D01*
X0109696Y0021898D01*
X0109685Y0021596D01*
X0109667Y0021295D01*
X0109642Y0020994D01*
X0109609Y0020693D01*
X0109569Y0020394D01*
X0109522Y0020096D01*
X0109467Y0019798D01*
X0109406Y0019503D01*
X0109337Y0019209D01*
X0109261Y0018916D01*
X0109178Y0018626D01*
X0109088Y0018337D01*
X0108991Y0018051D01*
X0108888Y0017767D01*
X0108777Y0017486D01*
X0108660Y0017208D01*
X0108536Y0016932D01*
X0108405Y0016660D01*
X0108268Y0016391D01*
X0108125Y0016125D01*
X0107975Y0015863D01*
X0107818Y0015604D01*
X0107656Y0015350D01*
X0107487Y0015099D01*
X0107313Y0014853D01*
X0107132Y0014610D01*
X0106946Y0014373D01*
X0106754Y0014139D01*
X0106556Y0013911D01*
X0106353Y0013687D01*
X0106145Y0013469D01*
X0105931Y0013255D01*
X0105713Y0013047D01*
X0105489Y0012844D01*
X0105261Y0012646D01*
X0105027Y0012454D01*
X0104790Y0012268D01*
X0104547Y0012087D01*
X0104301Y0011913D01*
X0104050Y0011744D01*
X0103796Y0011582D01*
X0103537Y0011425D01*
X0103275Y0011275D01*
X0103009Y0011132D01*
X0102740Y0010995D01*
X0102468Y0010864D01*
X0102192Y0010740D01*
X0101914Y0010623D01*
X0101633Y0010512D01*
X0101349Y0010409D01*
X0101063Y0010312D01*
X0100774Y0010222D01*
X0100484Y0010139D01*
X0100191Y0010063D01*
X0099897Y0009994D01*
X0099602Y0009933D01*
X0099304Y0009878D01*
X0099006Y0009831D01*
X0098707Y0009791D01*
X0098406Y0009758D01*
X0098105Y0009733D01*
X0097804Y0009715D01*
X0097502Y0009704D01*
X0097200Y0009700D01*
X0022200Y0009700D01*
X0021898Y0009704D01*
X0021596Y0009715D01*
X0021295Y0009733D01*
X0020994Y0009758D01*
X0020693Y0009791D01*
X0020394Y0009831D01*
X0020096Y0009878D01*
X0019798Y0009933D01*
X0019503Y0009994D01*
X0019209Y0010063D01*
X0018916Y0010139D01*
X0018626Y0010222D01*
X0018337Y0010312D01*
X0018051Y0010409D01*
X0017767Y0010512D01*
X0017486Y0010623D01*
X0017208Y0010740D01*
X0016932Y0010864D01*
X0016660Y0010995D01*
X0016391Y0011132D01*
X0016125Y0011275D01*
X0015863Y0011425D01*
X0015604Y0011582D01*
X0015350Y0011744D01*
X0015099Y0011913D01*
X0014853Y0012087D01*
X0014610Y0012268D01*
X0014373Y0012454D01*
X0014139Y0012646D01*
X0013911Y0012844D01*
X0013687Y0013047D01*
X0013469Y0013255D01*
X0013255Y0013469D01*
X0013047Y0013687D01*
X0012844Y0013911D01*
X0012646Y0014139D01*
X0012454Y0014373D01*
X0012268Y0014610D01*
X0012087Y0014853D01*
X0011913Y0015099D01*
X0011744Y0015350D01*
X0011582Y0015604D01*
X0011425Y0015863D01*
X0011275Y0016125D01*
X0011132Y0016391D01*
X0010995Y0016660D01*
X0010864Y0016932D01*
X0010740Y0017208D01*
X0010623Y0017486D01*
X0010512Y0017767D01*
X0010409Y0018051D01*
X0010312Y0018337D01*
X0010222Y0018626D01*
X0010139Y0018916D01*
X0010063Y0019209D01*
X0009994Y0019503D01*
X0009933Y0019798D01*
X0009878Y0020096D01*
X0009831Y0020394D01*
X0009791Y0020693D01*
X0009758Y0020994D01*
X0009733Y0021295D01*
X0009715Y0021596D01*
X0009704Y0021898D01*
X0009700Y0022200D01*
D11*
X0016400Y0028450D02*
X0016402Y0028602D01*
X0016408Y0028754D01*
X0016418Y0028905D01*
X0016432Y0029056D01*
X0016450Y0029207D01*
X0016471Y0029357D01*
X0016497Y0029507D01*
X0016527Y0029656D01*
X0016560Y0029804D01*
X0016598Y0029951D01*
X0016639Y0030097D01*
X0016684Y0030242D01*
X0016733Y0030386D01*
X0016785Y0030529D01*
X0016841Y0030670D01*
X0016901Y0030809D01*
X0016965Y0030947D01*
X0017032Y0031083D01*
X0017103Y0031218D01*
X0017177Y0031350D01*
X0017255Y0031480D01*
X0017336Y0031609D01*
X0017420Y0031735D01*
X0017508Y0031859D01*
X0017599Y0031981D01*
X0017693Y0032100D01*
X0017790Y0032217D01*
X0017890Y0032331D01*
X0017993Y0032442D01*
X0018099Y0032551D01*
X0018208Y0032657D01*
X0018319Y0032760D01*
X0018433Y0032860D01*
X0018550Y0032957D01*
X0018669Y0033051D01*
X0018791Y0033142D01*
X0018915Y0033230D01*
X0019041Y0033314D01*
X0019170Y0033395D01*
X0019300Y0033473D01*
X0019432Y0033547D01*
X0019567Y0033618D01*
X0019703Y0033685D01*
X0019841Y0033749D01*
X0019980Y0033809D01*
X0020121Y0033865D01*
X0020264Y0033917D01*
X0020408Y0033966D01*
X0020553Y0034011D01*
X0020699Y0034052D01*
X0020846Y0034090D01*
X0020994Y0034123D01*
X0021143Y0034153D01*
X0021293Y0034179D01*
X0021443Y0034200D01*
X0021594Y0034218D01*
X0021745Y0034232D01*
X0021896Y0034242D01*
X0022048Y0034248D01*
X0022200Y0034250D01*
X0022352Y0034248D01*
X0022504Y0034242D01*
X0022655Y0034232D01*
X0022806Y0034218D01*
X0022957Y0034200D01*
X0023107Y0034179D01*
X0023257Y0034153D01*
X0023406Y0034123D01*
X0023554Y0034090D01*
X0023701Y0034052D01*
X0023847Y0034011D01*
X0023992Y0033966D01*
X0024136Y0033917D01*
X0024279Y0033865D01*
X0024420Y0033809D01*
X0024559Y0033749D01*
X0024697Y0033685D01*
X0024833Y0033618D01*
X0024968Y0033547D01*
X0025100Y0033473D01*
X0025230Y0033395D01*
X0025359Y0033314D01*
X0025485Y0033230D01*
X0025609Y0033142D01*
X0025731Y0033051D01*
X0025850Y0032957D01*
X0025967Y0032860D01*
X0026081Y0032760D01*
X0026192Y0032657D01*
X0026301Y0032551D01*
X0026407Y0032442D01*
X0026510Y0032331D01*
X0026610Y0032217D01*
X0026707Y0032100D01*
X0026801Y0031981D01*
X0026892Y0031859D01*
X0026980Y0031735D01*
X0027064Y0031609D01*
X0027145Y0031480D01*
X0027223Y0031350D01*
X0027297Y0031218D01*
X0027368Y0031083D01*
X0027435Y0030947D01*
X0027499Y0030809D01*
X0027559Y0030670D01*
X0027615Y0030529D01*
X0027667Y0030386D01*
X0027716Y0030242D01*
X0027761Y0030097D01*
X0027802Y0029951D01*
X0027840Y0029804D01*
X0027873Y0029656D01*
X0027903Y0029507D01*
X0027929Y0029357D01*
X0027950Y0029207D01*
X0027968Y0029056D01*
X0027982Y0028905D01*
X0027992Y0028754D01*
X0027998Y0028602D01*
X0028000Y0028450D01*
X0027998Y0028298D01*
X0027992Y0028146D01*
X0027982Y0027995D01*
X0027968Y0027844D01*
X0027950Y0027693D01*
X0027929Y0027543D01*
X0027903Y0027393D01*
X0027873Y0027244D01*
X0027840Y0027096D01*
X0027802Y0026949D01*
X0027761Y0026803D01*
X0027716Y0026658D01*
X0027667Y0026514D01*
X0027615Y0026371D01*
X0027559Y0026230D01*
X0027499Y0026091D01*
X0027435Y0025953D01*
X0027368Y0025817D01*
X0027297Y0025682D01*
X0027223Y0025550D01*
X0027145Y0025420D01*
X0027064Y0025291D01*
X0026980Y0025165D01*
X0026892Y0025041D01*
X0026801Y0024919D01*
X0026707Y0024800D01*
X0026610Y0024683D01*
X0026510Y0024569D01*
X0026407Y0024458D01*
X0026301Y0024349D01*
X0026192Y0024243D01*
X0026081Y0024140D01*
X0025967Y0024040D01*
X0025850Y0023943D01*
X0025731Y0023849D01*
X0025609Y0023758D01*
X0025485Y0023670D01*
X0025359Y0023586D01*
X0025230Y0023505D01*
X0025100Y0023427D01*
X0024968Y0023353D01*
X0024833Y0023282D01*
X0024697Y0023215D01*
X0024559Y0023151D01*
X0024420Y0023091D01*
X0024279Y0023035D01*
X0024136Y0022983D01*
X0023992Y0022934D01*
X0023847Y0022889D01*
X0023701Y0022848D01*
X0023554Y0022810D01*
X0023406Y0022777D01*
X0023257Y0022747D01*
X0023107Y0022721D01*
X0022957Y0022700D01*
X0022806Y0022682D01*
X0022655Y0022668D01*
X0022504Y0022658D01*
X0022352Y0022652D01*
X0022200Y0022650D01*
X0022048Y0022652D01*
X0021896Y0022658D01*
X0021745Y0022668D01*
X0021594Y0022682D01*
X0021443Y0022700D01*
X0021293Y0022721D01*
X0021143Y0022747D01*
X0020994Y0022777D01*
X0020846Y0022810D01*
X0020699Y0022848D01*
X0020553Y0022889D01*
X0020408Y0022934D01*
X0020264Y0022983D01*
X0020121Y0023035D01*
X0019980Y0023091D01*
X0019841Y0023151D01*
X0019703Y0023215D01*
X0019567Y0023282D01*
X0019432Y0023353D01*
X0019300Y0023427D01*
X0019170Y0023505D01*
X0019041Y0023586D01*
X0018915Y0023670D01*
X0018791Y0023758D01*
X0018669Y0023849D01*
X0018550Y0023943D01*
X0018433Y0024040D01*
X0018319Y0024140D01*
X0018208Y0024243D01*
X0018099Y0024349D01*
X0017993Y0024458D01*
X0017890Y0024569D01*
X0017790Y0024683D01*
X0017693Y0024800D01*
X0017599Y0024919D01*
X0017508Y0025041D01*
X0017420Y0025165D01*
X0017336Y0025291D01*
X0017255Y0025420D01*
X0017177Y0025550D01*
X0017103Y0025682D01*
X0017032Y0025817D01*
X0016965Y0025953D01*
X0016901Y0026091D01*
X0016841Y0026230D01*
X0016785Y0026371D01*
X0016733Y0026514D01*
X0016684Y0026658D01*
X0016639Y0026803D01*
X0016598Y0026949D01*
X0016560Y0027096D01*
X0016527Y0027244D01*
X0016497Y0027393D01*
X0016471Y0027543D01*
X0016450Y0027693D01*
X0016432Y0027844D01*
X0016418Y0027995D01*
X0016408Y0028146D01*
X0016402Y0028298D01*
X0016400Y0028450D01*
X0091400Y0028450D02*
X0091402Y0028602D01*
X0091408Y0028754D01*
X0091418Y0028905D01*
X0091432Y0029056D01*
X0091450Y0029207D01*
X0091471Y0029357D01*
X0091497Y0029507D01*
X0091527Y0029656D01*
X0091560Y0029804D01*
X0091598Y0029951D01*
X0091639Y0030097D01*
X0091684Y0030242D01*
X0091733Y0030386D01*
X0091785Y0030529D01*
X0091841Y0030670D01*
X0091901Y0030809D01*
X0091965Y0030947D01*
X0092032Y0031083D01*
X0092103Y0031218D01*
X0092177Y0031350D01*
X0092255Y0031480D01*
X0092336Y0031609D01*
X0092420Y0031735D01*
X0092508Y0031859D01*
X0092599Y0031981D01*
X0092693Y0032100D01*
X0092790Y0032217D01*
X0092890Y0032331D01*
X0092993Y0032442D01*
X0093099Y0032551D01*
X0093208Y0032657D01*
X0093319Y0032760D01*
X0093433Y0032860D01*
X0093550Y0032957D01*
X0093669Y0033051D01*
X0093791Y0033142D01*
X0093915Y0033230D01*
X0094041Y0033314D01*
X0094170Y0033395D01*
X0094300Y0033473D01*
X0094432Y0033547D01*
X0094567Y0033618D01*
X0094703Y0033685D01*
X0094841Y0033749D01*
X0094980Y0033809D01*
X0095121Y0033865D01*
X0095264Y0033917D01*
X0095408Y0033966D01*
X0095553Y0034011D01*
X0095699Y0034052D01*
X0095846Y0034090D01*
X0095994Y0034123D01*
X0096143Y0034153D01*
X0096293Y0034179D01*
X0096443Y0034200D01*
X0096594Y0034218D01*
X0096745Y0034232D01*
X0096896Y0034242D01*
X0097048Y0034248D01*
X0097200Y0034250D01*
X0097352Y0034248D01*
X0097504Y0034242D01*
X0097655Y0034232D01*
X0097806Y0034218D01*
X0097957Y0034200D01*
X0098107Y0034179D01*
X0098257Y0034153D01*
X0098406Y0034123D01*
X0098554Y0034090D01*
X0098701Y0034052D01*
X0098847Y0034011D01*
X0098992Y0033966D01*
X0099136Y0033917D01*
X0099279Y0033865D01*
X0099420Y0033809D01*
X0099559Y0033749D01*
X0099697Y0033685D01*
X0099833Y0033618D01*
X0099968Y0033547D01*
X0100100Y0033473D01*
X0100230Y0033395D01*
X0100359Y0033314D01*
X0100485Y0033230D01*
X0100609Y0033142D01*
X0100731Y0033051D01*
X0100850Y0032957D01*
X0100967Y0032860D01*
X0101081Y0032760D01*
X0101192Y0032657D01*
X0101301Y0032551D01*
X0101407Y0032442D01*
X0101510Y0032331D01*
X0101610Y0032217D01*
X0101707Y0032100D01*
X0101801Y0031981D01*
X0101892Y0031859D01*
X0101980Y0031735D01*
X0102064Y0031609D01*
X0102145Y0031480D01*
X0102223Y0031350D01*
X0102297Y0031218D01*
X0102368Y0031083D01*
X0102435Y0030947D01*
X0102499Y0030809D01*
X0102559Y0030670D01*
X0102615Y0030529D01*
X0102667Y0030386D01*
X0102716Y0030242D01*
X0102761Y0030097D01*
X0102802Y0029951D01*
X0102840Y0029804D01*
X0102873Y0029656D01*
X0102903Y0029507D01*
X0102929Y0029357D01*
X0102950Y0029207D01*
X0102968Y0029056D01*
X0102982Y0028905D01*
X0102992Y0028754D01*
X0102998Y0028602D01*
X0103000Y0028450D01*
X0102998Y0028298D01*
X0102992Y0028146D01*
X0102982Y0027995D01*
X0102968Y0027844D01*
X0102950Y0027693D01*
X0102929Y0027543D01*
X0102903Y0027393D01*
X0102873Y0027244D01*
X0102840Y0027096D01*
X0102802Y0026949D01*
X0102761Y0026803D01*
X0102716Y0026658D01*
X0102667Y0026514D01*
X0102615Y0026371D01*
X0102559Y0026230D01*
X0102499Y0026091D01*
X0102435Y0025953D01*
X0102368Y0025817D01*
X0102297Y0025682D01*
X0102223Y0025550D01*
X0102145Y0025420D01*
X0102064Y0025291D01*
X0101980Y0025165D01*
X0101892Y0025041D01*
X0101801Y0024919D01*
X0101707Y0024800D01*
X0101610Y0024683D01*
X0101510Y0024569D01*
X0101407Y0024458D01*
X0101301Y0024349D01*
X0101192Y0024243D01*
X0101081Y0024140D01*
X0100967Y0024040D01*
X0100850Y0023943D01*
X0100731Y0023849D01*
X0100609Y0023758D01*
X0100485Y0023670D01*
X0100359Y0023586D01*
X0100230Y0023505D01*
X0100100Y0023427D01*
X0099968Y0023353D01*
X0099833Y0023282D01*
X0099697Y0023215D01*
X0099559Y0023151D01*
X0099420Y0023091D01*
X0099279Y0023035D01*
X0099136Y0022983D01*
X0098992Y0022934D01*
X0098847Y0022889D01*
X0098701Y0022848D01*
X0098554Y0022810D01*
X0098406Y0022777D01*
X0098257Y0022747D01*
X0098107Y0022721D01*
X0097957Y0022700D01*
X0097806Y0022682D01*
X0097655Y0022668D01*
X0097504Y0022658D01*
X0097352Y0022652D01*
X0097200Y0022650D01*
X0097048Y0022652D01*
X0096896Y0022658D01*
X0096745Y0022668D01*
X0096594Y0022682D01*
X0096443Y0022700D01*
X0096293Y0022721D01*
X0096143Y0022747D01*
X0095994Y0022777D01*
X0095846Y0022810D01*
X0095699Y0022848D01*
X0095553Y0022889D01*
X0095408Y0022934D01*
X0095264Y0022983D01*
X0095121Y0023035D01*
X0094980Y0023091D01*
X0094841Y0023151D01*
X0094703Y0023215D01*
X0094567Y0023282D01*
X0094432Y0023353D01*
X0094300Y0023427D01*
X0094170Y0023505D01*
X0094041Y0023586D01*
X0093915Y0023670D01*
X0093791Y0023758D01*
X0093669Y0023849D01*
X0093550Y0023943D01*
X0093433Y0024040D01*
X0093319Y0024140D01*
X0093208Y0024243D01*
X0093099Y0024349D01*
X0092993Y0024458D01*
X0092890Y0024569D01*
X0092790Y0024683D01*
X0092693Y0024800D01*
X0092599Y0024919D01*
X0092508Y0025041D01*
X0092420Y0025165D01*
X0092336Y0025291D01*
X0092255Y0025420D01*
X0092177Y0025550D01*
X0092103Y0025682D01*
X0092032Y0025817D01*
X0091965Y0025953D01*
X0091901Y0026091D01*
X0091841Y0026230D01*
X0091785Y0026371D01*
X0091733Y0026514D01*
X0091684Y0026658D01*
X0091639Y0026803D01*
X0091598Y0026949D01*
X0091560Y0027096D01*
X0091527Y0027244D01*
X0091497Y0027393D01*
X0091471Y0027543D01*
X0091450Y0027693D01*
X0091432Y0027844D01*
X0091418Y0027995D01*
X0091408Y0028146D01*
X0091402Y0028298D01*
X0091400Y0028450D01*
X0078500Y0149300D02*
X0078502Y0149464D01*
X0078508Y0149629D01*
X0078518Y0149793D01*
X0078532Y0149957D01*
X0078550Y0150120D01*
X0078573Y0150283D01*
X0078599Y0150445D01*
X0078629Y0150607D01*
X0078663Y0150768D01*
X0078701Y0150928D01*
X0078743Y0151087D01*
X0078788Y0151245D01*
X0078838Y0151402D01*
X0078892Y0151557D01*
X0078949Y0151711D01*
X0079010Y0151864D01*
X0079075Y0152015D01*
X0079143Y0152165D01*
X0079215Y0152312D01*
X0079291Y0152458D01*
X0079370Y0152602D01*
X0079453Y0152744D01*
X0079539Y0152884D01*
X0079629Y0153022D01*
X0079722Y0153158D01*
X0079819Y0153291D01*
X0079918Y0153422D01*
X0080021Y0153550D01*
X0080127Y0153676D01*
X0080236Y0153799D01*
X0080348Y0153920D01*
X0080462Y0154038D01*
X0080580Y0154152D01*
X0080701Y0154264D01*
X0080824Y0154373D01*
X0080950Y0154479D01*
X0081078Y0154582D01*
X0081209Y0154681D01*
X0081342Y0154778D01*
X0081478Y0154871D01*
X0081616Y0154961D01*
X0081756Y0155047D01*
X0081898Y0155130D01*
X0082042Y0155209D01*
X0082188Y0155285D01*
X0082335Y0155357D01*
X0082485Y0155425D01*
X0082636Y0155490D01*
X0082789Y0155551D01*
X0082943Y0155608D01*
X0083098Y0155662D01*
X0083255Y0155712D01*
X0083413Y0155757D01*
X0083572Y0155799D01*
X0083732Y0155837D01*
X0083893Y0155871D01*
X0084055Y0155901D01*
X0084217Y0155927D01*
X0084380Y0155950D01*
X0084543Y0155968D01*
X0084707Y0155982D01*
X0084871Y0155992D01*
X0085036Y0155998D01*
X0085200Y0156000D01*
X0085364Y0155998D01*
X0085529Y0155992D01*
X0085693Y0155982D01*
X0085857Y0155968D01*
X0086020Y0155950D01*
X0086183Y0155927D01*
X0086345Y0155901D01*
X0086507Y0155871D01*
X0086668Y0155837D01*
X0086828Y0155799D01*
X0086987Y0155757D01*
X0087145Y0155712D01*
X0087302Y0155662D01*
X0087457Y0155608D01*
X0087611Y0155551D01*
X0087764Y0155490D01*
X0087915Y0155425D01*
X0088065Y0155357D01*
X0088212Y0155285D01*
X0088358Y0155209D01*
X0088502Y0155130D01*
X0088644Y0155047D01*
X0088784Y0154961D01*
X0088922Y0154871D01*
X0089058Y0154778D01*
X0089191Y0154681D01*
X0089322Y0154582D01*
X0089450Y0154479D01*
X0089576Y0154373D01*
X0089699Y0154264D01*
X0089820Y0154152D01*
X0089938Y0154038D01*
X0090052Y0153920D01*
X0090164Y0153799D01*
X0090273Y0153676D01*
X0090379Y0153550D01*
X0090482Y0153422D01*
X0090581Y0153291D01*
X0090678Y0153158D01*
X0090771Y0153022D01*
X0090861Y0152884D01*
X0090947Y0152744D01*
X0091030Y0152602D01*
X0091109Y0152458D01*
X0091185Y0152312D01*
X0091257Y0152165D01*
X0091325Y0152015D01*
X0091390Y0151864D01*
X0091451Y0151711D01*
X0091508Y0151557D01*
X0091562Y0151402D01*
X0091612Y0151245D01*
X0091657Y0151087D01*
X0091699Y0150928D01*
X0091737Y0150768D01*
X0091771Y0150607D01*
X0091801Y0150445D01*
X0091827Y0150283D01*
X0091850Y0150120D01*
X0091868Y0149957D01*
X0091882Y0149793D01*
X0091892Y0149629D01*
X0091898Y0149464D01*
X0091900Y0149300D01*
X0091898Y0149136D01*
X0091892Y0148971D01*
X0091882Y0148807D01*
X0091868Y0148643D01*
X0091850Y0148480D01*
X0091827Y0148317D01*
X0091801Y0148155D01*
X0091771Y0147993D01*
X0091737Y0147832D01*
X0091699Y0147672D01*
X0091657Y0147513D01*
X0091612Y0147355D01*
X0091562Y0147198D01*
X0091508Y0147043D01*
X0091451Y0146889D01*
X0091390Y0146736D01*
X0091325Y0146585D01*
X0091257Y0146435D01*
X0091185Y0146288D01*
X0091109Y0146142D01*
X0091030Y0145998D01*
X0090947Y0145856D01*
X0090861Y0145716D01*
X0090771Y0145578D01*
X0090678Y0145442D01*
X0090581Y0145309D01*
X0090482Y0145178D01*
X0090379Y0145050D01*
X0090273Y0144924D01*
X0090164Y0144801D01*
X0090052Y0144680D01*
X0089938Y0144562D01*
X0089820Y0144448D01*
X0089699Y0144336D01*
X0089576Y0144227D01*
X0089450Y0144121D01*
X0089322Y0144018D01*
X0089191Y0143919D01*
X0089058Y0143822D01*
X0088922Y0143729D01*
X0088784Y0143639D01*
X0088644Y0143553D01*
X0088502Y0143470D01*
X0088358Y0143391D01*
X0088212Y0143315D01*
X0088065Y0143243D01*
X0087915Y0143175D01*
X0087764Y0143110D01*
X0087611Y0143049D01*
X0087457Y0142992D01*
X0087302Y0142938D01*
X0087145Y0142888D01*
X0086987Y0142843D01*
X0086828Y0142801D01*
X0086668Y0142763D01*
X0086507Y0142729D01*
X0086345Y0142699D01*
X0086183Y0142673D01*
X0086020Y0142650D01*
X0085857Y0142632D01*
X0085693Y0142618D01*
X0085529Y0142608D01*
X0085364Y0142602D01*
X0085200Y0142600D01*
X0085036Y0142602D01*
X0084871Y0142608D01*
X0084707Y0142618D01*
X0084543Y0142632D01*
X0084380Y0142650D01*
X0084217Y0142673D01*
X0084055Y0142699D01*
X0083893Y0142729D01*
X0083732Y0142763D01*
X0083572Y0142801D01*
X0083413Y0142843D01*
X0083255Y0142888D01*
X0083098Y0142938D01*
X0082943Y0142992D01*
X0082789Y0143049D01*
X0082636Y0143110D01*
X0082485Y0143175D01*
X0082335Y0143243D01*
X0082188Y0143315D01*
X0082042Y0143391D01*
X0081898Y0143470D01*
X0081756Y0143553D01*
X0081616Y0143639D01*
X0081478Y0143729D01*
X0081342Y0143822D01*
X0081209Y0143919D01*
X0081078Y0144018D01*
X0080950Y0144121D01*
X0080824Y0144227D01*
X0080701Y0144336D01*
X0080580Y0144448D01*
X0080462Y0144562D01*
X0080348Y0144680D01*
X0080236Y0144801D01*
X0080127Y0144924D01*
X0080021Y0145050D01*
X0079918Y0145178D01*
X0079819Y0145309D01*
X0079722Y0145442D01*
X0079629Y0145578D01*
X0079539Y0145716D01*
X0079453Y0145856D01*
X0079370Y0145998D01*
X0079291Y0146142D01*
X0079215Y0146288D01*
X0079143Y0146435D01*
X0079075Y0146585D01*
X0079010Y0146736D01*
X0078949Y0146889D01*
X0078892Y0147043D01*
X0078838Y0147198D01*
X0078788Y0147355D01*
X0078743Y0147513D01*
X0078701Y0147672D01*
X0078663Y0147832D01*
X0078629Y0147993D01*
X0078599Y0148155D01*
X0078573Y0148317D01*
X0078550Y0148480D01*
X0078532Y0148643D01*
X0078518Y0148807D01*
X0078508Y0148971D01*
X0078502Y0149136D01*
X0078500Y0149300D01*
X0027500Y0149300D02*
X0027502Y0149464D01*
X0027508Y0149629D01*
X0027518Y0149793D01*
X0027532Y0149957D01*
X0027550Y0150120D01*
X0027573Y0150283D01*
X0027599Y0150445D01*
X0027629Y0150607D01*
X0027663Y0150768D01*
X0027701Y0150928D01*
X0027743Y0151087D01*
X0027788Y0151245D01*
X0027838Y0151402D01*
X0027892Y0151557D01*
X0027949Y0151711D01*
X0028010Y0151864D01*
X0028075Y0152015D01*
X0028143Y0152165D01*
X0028215Y0152312D01*
X0028291Y0152458D01*
X0028370Y0152602D01*
X0028453Y0152744D01*
X0028539Y0152884D01*
X0028629Y0153022D01*
X0028722Y0153158D01*
X0028819Y0153291D01*
X0028918Y0153422D01*
X0029021Y0153550D01*
X0029127Y0153676D01*
X0029236Y0153799D01*
X0029348Y0153920D01*
X0029462Y0154038D01*
X0029580Y0154152D01*
X0029701Y0154264D01*
X0029824Y0154373D01*
X0029950Y0154479D01*
X0030078Y0154582D01*
X0030209Y0154681D01*
X0030342Y0154778D01*
X0030478Y0154871D01*
X0030616Y0154961D01*
X0030756Y0155047D01*
X0030898Y0155130D01*
X0031042Y0155209D01*
X0031188Y0155285D01*
X0031335Y0155357D01*
X0031485Y0155425D01*
X0031636Y0155490D01*
X0031789Y0155551D01*
X0031943Y0155608D01*
X0032098Y0155662D01*
X0032255Y0155712D01*
X0032413Y0155757D01*
X0032572Y0155799D01*
X0032732Y0155837D01*
X0032893Y0155871D01*
X0033055Y0155901D01*
X0033217Y0155927D01*
X0033380Y0155950D01*
X0033543Y0155968D01*
X0033707Y0155982D01*
X0033871Y0155992D01*
X0034036Y0155998D01*
X0034200Y0156000D01*
X0034364Y0155998D01*
X0034529Y0155992D01*
X0034693Y0155982D01*
X0034857Y0155968D01*
X0035020Y0155950D01*
X0035183Y0155927D01*
X0035345Y0155901D01*
X0035507Y0155871D01*
X0035668Y0155837D01*
X0035828Y0155799D01*
X0035987Y0155757D01*
X0036145Y0155712D01*
X0036302Y0155662D01*
X0036457Y0155608D01*
X0036611Y0155551D01*
X0036764Y0155490D01*
X0036915Y0155425D01*
X0037065Y0155357D01*
X0037212Y0155285D01*
X0037358Y0155209D01*
X0037502Y0155130D01*
X0037644Y0155047D01*
X0037784Y0154961D01*
X0037922Y0154871D01*
X0038058Y0154778D01*
X0038191Y0154681D01*
X0038322Y0154582D01*
X0038450Y0154479D01*
X0038576Y0154373D01*
X0038699Y0154264D01*
X0038820Y0154152D01*
X0038938Y0154038D01*
X0039052Y0153920D01*
X0039164Y0153799D01*
X0039273Y0153676D01*
X0039379Y0153550D01*
X0039482Y0153422D01*
X0039581Y0153291D01*
X0039678Y0153158D01*
X0039771Y0153022D01*
X0039861Y0152884D01*
X0039947Y0152744D01*
X0040030Y0152602D01*
X0040109Y0152458D01*
X0040185Y0152312D01*
X0040257Y0152165D01*
X0040325Y0152015D01*
X0040390Y0151864D01*
X0040451Y0151711D01*
X0040508Y0151557D01*
X0040562Y0151402D01*
X0040612Y0151245D01*
X0040657Y0151087D01*
X0040699Y0150928D01*
X0040737Y0150768D01*
X0040771Y0150607D01*
X0040801Y0150445D01*
X0040827Y0150283D01*
X0040850Y0150120D01*
X0040868Y0149957D01*
X0040882Y0149793D01*
X0040892Y0149629D01*
X0040898Y0149464D01*
X0040900Y0149300D01*
X0040898Y0149136D01*
X0040892Y0148971D01*
X0040882Y0148807D01*
X0040868Y0148643D01*
X0040850Y0148480D01*
X0040827Y0148317D01*
X0040801Y0148155D01*
X0040771Y0147993D01*
X0040737Y0147832D01*
X0040699Y0147672D01*
X0040657Y0147513D01*
X0040612Y0147355D01*
X0040562Y0147198D01*
X0040508Y0147043D01*
X0040451Y0146889D01*
X0040390Y0146736D01*
X0040325Y0146585D01*
X0040257Y0146435D01*
X0040185Y0146288D01*
X0040109Y0146142D01*
X0040030Y0145998D01*
X0039947Y0145856D01*
X0039861Y0145716D01*
X0039771Y0145578D01*
X0039678Y0145442D01*
X0039581Y0145309D01*
X0039482Y0145178D01*
X0039379Y0145050D01*
X0039273Y0144924D01*
X0039164Y0144801D01*
X0039052Y0144680D01*
X0038938Y0144562D01*
X0038820Y0144448D01*
X0038699Y0144336D01*
X0038576Y0144227D01*
X0038450Y0144121D01*
X0038322Y0144018D01*
X0038191Y0143919D01*
X0038058Y0143822D01*
X0037922Y0143729D01*
X0037784Y0143639D01*
X0037644Y0143553D01*
X0037502Y0143470D01*
X0037358Y0143391D01*
X0037212Y0143315D01*
X0037065Y0143243D01*
X0036915Y0143175D01*
X0036764Y0143110D01*
X0036611Y0143049D01*
X0036457Y0142992D01*
X0036302Y0142938D01*
X0036145Y0142888D01*
X0035987Y0142843D01*
X0035828Y0142801D01*
X0035668Y0142763D01*
X0035507Y0142729D01*
X0035345Y0142699D01*
X0035183Y0142673D01*
X0035020Y0142650D01*
X0034857Y0142632D01*
X0034693Y0142618D01*
X0034529Y0142608D01*
X0034364Y0142602D01*
X0034200Y0142600D01*
X0034036Y0142602D01*
X0033871Y0142608D01*
X0033707Y0142618D01*
X0033543Y0142632D01*
X0033380Y0142650D01*
X0033217Y0142673D01*
X0033055Y0142699D01*
X0032893Y0142729D01*
X0032732Y0142763D01*
X0032572Y0142801D01*
X0032413Y0142843D01*
X0032255Y0142888D01*
X0032098Y0142938D01*
X0031943Y0142992D01*
X0031789Y0143049D01*
X0031636Y0143110D01*
X0031485Y0143175D01*
X0031335Y0143243D01*
X0031188Y0143315D01*
X0031042Y0143391D01*
X0030898Y0143470D01*
X0030756Y0143553D01*
X0030616Y0143639D01*
X0030478Y0143729D01*
X0030342Y0143822D01*
X0030209Y0143919D01*
X0030078Y0144018D01*
X0029950Y0144121D01*
X0029824Y0144227D01*
X0029701Y0144336D01*
X0029580Y0144448D01*
X0029462Y0144562D01*
X0029348Y0144680D01*
X0029236Y0144801D01*
X0029127Y0144924D01*
X0029021Y0145050D01*
X0028918Y0145178D01*
X0028819Y0145309D01*
X0028722Y0145442D01*
X0028629Y0145578D01*
X0028539Y0145716D01*
X0028453Y0145856D01*
X0028370Y0145998D01*
X0028291Y0146142D01*
X0028215Y0146288D01*
X0028143Y0146435D01*
X0028075Y0146585D01*
X0028010Y0146736D01*
X0027949Y0146889D01*
X0027892Y0147043D01*
X0027838Y0147198D01*
X0027788Y0147355D01*
X0027743Y0147513D01*
X0027701Y0147672D01*
X0027663Y0147832D01*
X0027629Y0147993D01*
X0027599Y0148155D01*
X0027573Y0148317D01*
X0027550Y0148480D01*
X0027532Y0148643D01*
X0027518Y0148807D01*
X0027508Y0148971D01*
X0027502Y0149136D01*
X0027500Y0149300D01*
D12*
X0049700Y0030950D03*
X0049700Y0025950D03*
X0054700Y0025950D03*
X0054700Y0030950D03*
X0059700Y0030950D03*
X0059700Y0025950D03*
X0064700Y0025950D03*
X0064700Y0030950D03*
X0069700Y0030950D03*
X0069700Y0025950D03*
D13*
X0069700Y0107200D03*
X0079700Y0107200D03*
X0059700Y0107200D03*
X0049700Y0107200D03*
X0039700Y0107200D03*
D14*
X0021450Y0069700D03*
X0021450Y0049700D03*
X0037950Y0059700D03*
X0081450Y0059700D03*
X0097950Y0049700D03*
X0097950Y0069700D03*
D15*
X0019700Y0111602D03*
X0019700Y0122798D03*
D16*
X0019700Y0098962D03*
X0019700Y0087938D03*
X0102200Y0109188D03*
X0102200Y0120212D03*
X0102200Y0139188D03*
X0102200Y0150212D03*
D17*
X0069700Y0147950D03*
X0059700Y0131450D03*
X0049700Y0147950D03*
D18*
X0047200Y0137200D03*
X0047200Y0087200D03*
X0022200Y0077200D03*
X0022200Y0042200D03*
X0094700Y0062200D03*
X0095950Y0129700D03*
D19*
X0098450Y0129700D01*
X0102200Y0125950D01*
X0102200Y0120212D01*
X0098450Y0129700D02*
X0102200Y0133450D01*
X0102200Y0139188D01*
X0102200Y0150212D02*
X0102200Y0157200D01*
X0099700Y0159700D01*
X0074700Y0159700D01*
X0069700Y0154700D01*
X0069700Y0147950D01*
X0049700Y0147950D02*
X0049700Y0139700D01*
X0047200Y0137200D01*
X0049700Y0107200D02*
X0049700Y0089700D01*
X0054700Y0084700D01*
X0054700Y0049700D01*
X0049700Y0044700D01*
X0049700Y0030950D01*
X0054700Y0030950D02*
X0054700Y0042200D01*
X0059700Y0047200D01*
X0059700Y0107200D01*
X0039700Y0094700D02*
X0047200Y0087200D01*
X0039700Y0094700D02*
X0039700Y0107200D01*
X0019700Y0111602D02*
X0019700Y0098962D01*
X0019700Y0087938D02*
X0019700Y0079700D01*
X0022200Y0077200D01*
X0021450Y0069700D02*
X0022200Y0068950D01*
X0022200Y0062200D01*
X0034700Y0049700D01*
X0034700Y0024700D01*
X0039700Y0019700D01*
X0052200Y0019700D01*
X0054700Y0022200D01*
X0054700Y0025950D01*
X0059700Y0030950D02*
X0059700Y0039700D01*
X0064700Y0044700D01*
X0064700Y0079700D01*
X0079700Y0094700D01*
X0079700Y0107200D01*
X0102200Y0109188D02*
X0102200Y0079700D01*
X0097950Y0075450D01*
X0097950Y0069700D01*
X0097200Y0066450D01*
X0097200Y0064700D01*
X0094700Y0062200D01*
X0092200Y0049700D02*
X0097950Y0049700D01*
X0092200Y0049700D02*
X0084700Y0042200D01*
X0084700Y0024700D01*
X0077200Y0017200D01*
X0067200Y0017200D01*
X0064700Y0019700D01*
X0064700Y0025950D01*
X0022200Y0042200D02*
X0022200Y0051450D01*
X0021450Y0049700D01*
D20*
X0029500Y0059991D02*
X0025800Y0063691D01*
X0025800Y0064400D01*
X0028257Y0064400D01*
X0029286Y0064826D01*
X0030074Y0065614D01*
X0030500Y0066643D01*
X0030500Y0072757D01*
X0030074Y0073786D01*
X0029286Y0074574D01*
X0028257Y0075000D01*
X0025715Y0075000D01*
X0026289Y0076387D01*
X0026289Y0078013D01*
X0025666Y0079516D01*
X0024516Y0080666D01*
X0023336Y0081155D01*
X0023300Y0081191D01*
X0023300Y0081989D01*
X0023800Y0081989D01*
X0024829Y0082415D01*
X0025617Y0083203D01*
X0026043Y0084232D01*
X0026043Y0091645D01*
X0025617Y0092674D01*
X0024841Y0093450D01*
X0025617Y0094226D01*
X0026043Y0095255D01*
X0026043Y0102668D01*
X0025617Y0103697D01*
X0024829Y0104485D01*
X0023800Y0104911D01*
X0023300Y0104911D01*
X0023300Y0105652D01*
X0023806Y0105652D01*
X0024835Y0106078D01*
X0025623Y0106866D01*
X0026049Y0107895D01*
X0026049Y0115308D01*
X0025623Y0116337D01*
X0024835Y0117125D01*
X0023851Y0117533D01*
X0024098Y0117599D01*
X0024600Y0117888D01*
X0025010Y0118298D01*
X0025299Y0118800D01*
X0025449Y0119359D01*
X0025449Y0122424D01*
X0020075Y0122424D01*
X0020075Y0123173D01*
X0025449Y0123173D01*
X0025449Y0126238D01*
X0025299Y0126797D01*
X0025010Y0127299D01*
X0024600Y0127708D01*
X0024098Y0127998D01*
X0023539Y0128148D01*
X0020075Y0128148D01*
X0020075Y0123173D01*
X0019325Y0123173D01*
X0019325Y0122424D01*
X0017848Y0122424D01*
X0017821Y0122450D01*
X0013100Y0122450D01*
X0013100Y0152200D01*
X0013178Y0153388D01*
X0013793Y0155682D01*
X0014980Y0157740D01*
X0016660Y0159420D01*
X0018718Y0160607D01*
X0021012Y0161222D01*
X0022200Y0161300D01*
X0071209Y0161300D01*
X0066909Y0157000D01*
X0066643Y0157000D01*
X0065614Y0156574D01*
X0064826Y0155786D01*
X0064400Y0154757D01*
X0064400Y0141143D01*
X0064826Y0140114D01*
X0065614Y0139326D01*
X0066643Y0138900D01*
X0072757Y0138900D01*
X0073786Y0139326D01*
X0074574Y0140114D01*
X0075000Y0141143D01*
X0075000Y0154757D01*
X0074955Y0154864D01*
X0076191Y0156100D01*
X0078565Y0156100D01*
X0077146Y0154681D01*
X0075700Y0151190D01*
X0075700Y0147410D01*
X0077146Y0143919D01*
X0079819Y0141246D01*
X0083310Y0139800D01*
X0087090Y0139800D01*
X0090581Y0141246D01*
X0093254Y0143919D01*
X0094700Y0147410D01*
X0094700Y0151190D01*
X0093254Y0154681D01*
X0091835Y0156100D01*
X0095200Y0156100D01*
X0095200Y0133789D01*
X0095137Y0133789D01*
X0093634Y0133166D01*
X0092484Y0132016D01*
X0091861Y0130513D01*
X0091861Y0128887D01*
X0092484Y0127384D01*
X0093634Y0126234D01*
X0095137Y0125611D01*
X0095200Y0125611D01*
X0095200Y0089278D01*
X0087622Y0081700D01*
X0086450Y0080528D01*
X0086450Y0064400D01*
X0081500Y0064400D01*
X0081500Y0059750D01*
X0081400Y0059750D01*
X0081400Y0064400D01*
X0074910Y0064400D01*
X0074351Y0064250D01*
X0073849Y0063960D01*
X0073440Y0063551D01*
X0073150Y0063049D01*
X0073000Y0062490D01*
X0073000Y0059750D01*
X0081400Y0059750D01*
X0081400Y0059650D01*
X0081500Y0059650D01*
X0081500Y0055000D01*
X0086450Y0055000D01*
X0086450Y0049041D01*
X0082661Y0045252D01*
X0081648Y0044239D01*
X0081100Y0042916D01*
X0081100Y0026191D01*
X0075709Y0020800D01*
X0068691Y0020800D01*
X0068300Y0021191D01*
X0068300Y0021450D01*
X0069700Y0021450D01*
X0071564Y0021450D01*
X0074200Y0024086D01*
X0074200Y0025950D01*
X0074200Y0027814D01*
X0073988Y0028026D01*
X0074800Y0028838D01*
X0074800Y0033062D01*
X0071812Y0036050D01*
X0067588Y0036050D01*
X0067200Y0035662D01*
X0066812Y0036050D01*
X0063300Y0036050D01*
X0063300Y0038209D01*
X0066739Y0041648D01*
X0066739Y0041648D01*
X0067752Y0042661D01*
X0068300Y0043984D01*
X0068300Y0078209D01*
X0082752Y0092661D01*
X0083265Y0093900D01*
X0083507Y0093900D01*
X0084536Y0094326D01*
X0085324Y0095114D01*
X0085750Y0096143D01*
X0085750Y0118257D01*
X0085324Y0119286D01*
X0084536Y0120074D01*
X0083507Y0120500D01*
X0075893Y0120500D01*
X0074864Y0120074D01*
X0074269Y0119479D01*
X0073799Y0119750D01*
X0073240Y0119900D01*
X0070125Y0119900D01*
X0070125Y0107625D01*
X0069275Y0107625D01*
X0069275Y0119900D01*
X0066160Y0119900D01*
X0065601Y0119750D01*
X0065131Y0119479D01*
X0064536Y0120074D01*
X0063507Y0120500D01*
X0055893Y0120500D01*
X0054864Y0120074D01*
X0054700Y0119910D01*
X0054536Y0120074D01*
X0053507Y0120500D01*
X0045893Y0120500D01*
X0044864Y0120074D01*
X0044700Y0119910D01*
X0044536Y0120074D01*
X0043507Y0120500D01*
X0035893Y0120500D01*
X0034864Y0120074D01*
X0034076Y0119286D01*
X0033650Y0118257D01*
X0033650Y0096143D01*
X0034076Y0095114D01*
X0034864Y0094326D01*
X0035893Y0093900D01*
X0036135Y0093900D01*
X0036648Y0092661D01*
X0043245Y0086064D01*
X0043734Y0084884D01*
X0044884Y0083734D01*
X0046387Y0083111D01*
X0048013Y0083111D01*
X0049516Y0083734D01*
X0050046Y0084263D01*
X0051100Y0083209D01*
X0051100Y0051191D01*
X0046648Y0046739D01*
X0046100Y0045416D01*
X0046100Y0034562D01*
X0044600Y0033062D01*
X0044600Y0028838D01*
X0044988Y0028450D01*
X0044600Y0028062D01*
X0044600Y0023838D01*
X0045138Y0023300D01*
X0041191Y0023300D01*
X0038300Y0026191D01*
X0038300Y0050416D01*
X0037752Y0051739D01*
X0034491Y0055000D01*
X0037900Y0055000D01*
X0037900Y0059650D01*
X0038000Y0059650D01*
X0038000Y0059750D01*
X0037900Y0059750D01*
X0037900Y0064400D01*
X0031410Y0064400D01*
X0030851Y0064250D01*
X0030349Y0063960D01*
X0029940Y0063551D01*
X0029650Y0063049D01*
X0029500Y0062490D01*
X0029500Y0059991D01*
X0029500Y0060069D02*
X0029422Y0060069D01*
X0029500Y0062467D02*
X0027024Y0062467D01*
X0029326Y0064866D02*
X0051100Y0064866D01*
X0051100Y0062467D02*
X0046400Y0062467D01*
X0046400Y0062490D02*
X0046250Y0063049D01*
X0045960Y0063551D01*
X0045551Y0063960D01*
X0045049Y0064250D01*
X0044490Y0064400D01*
X0038000Y0064400D01*
X0038000Y0059750D01*
X0046400Y0059750D01*
X0046400Y0062490D01*
X0046400Y0060069D02*
X0051100Y0060069D01*
X0051100Y0057670D02*
X0046400Y0057670D01*
X0046400Y0056910D02*
X0046400Y0059650D01*
X0038000Y0059650D01*
X0038000Y0055000D01*
X0044490Y0055000D01*
X0045049Y0055150D01*
X0045551Y0055440D01*
X0045960Y0055849D01*
X0046250Y0056351D01*
X0046400Y0056910D01*
X0045260Y0055272D02*
X0051100Y0055272D01*
X0051100Y0052873D02*
X0036618Y0052873D01*
X0038276Y0050475D02*
X0050384Y0050475D01*
X0047985Y0048076D02*
X0038300Y0048076D01*
X0038300Y0045678D02*
X0046208Y0045678D01*
X0046100Y0043279D02*
X0038300Y0043279D01*
X0038300Y0040881D02*
X0046100Y0040881D01*
X0046100Y0038482D02*
X0038300Y0038482D01*
X0038300Y0036084D02*
X0046100Y0036084D01*
X0045223Y0033685D02*
X0038300Y0033685D01*
X0038300Y0031287D02*
X0044600Y0031287D01*
X0044600Y0028888D02*
X0038300Y0028888D01*
X0038300Y0026490D02*
X0044600Y0026490D01*
X0044600Y0024091D02*
X0040400Y0024091D01*
X0063300Y0036084D02*
X0081100Y0036084D01*
X0081100Y0038482D02*
X0063573Y0038482D01*
X0065972Y0040881D02*
X0081100Y0040881D01*
X0081250Y0043279D02*
X0068008Y0043279D01*
X0068300Y0045678D02*
X0083087Y0045678D01*
X0085485Y0048076D02*
X0068300Y0048076D01*
X0068300Y0050475D02*
X0086450Y0050475D01*
X0086450Y0052873D02*
X0068300Y0052873D01*
X0068300Y0055272D02*
X0074140Y0055272D01*
X0074351Y0055150D02*
X0074910Y0055000D01*
X0081400Y0055000D01*
X0081400Y0059650D01*
X0073000Y0059650D01*
X0073000Y0056910D01*
X0073150Y0056351D01*
X0073440Y0055849D01*
X0073849Y0055440D01*
X0074351Y0055150D01*
X0073000Y0057670D02*
X0068300Y0057670D01*
X0068300Y0060069D02*
X0073000Y0060069D01*
X0073000Y0062467D02*
X0068300Y0062467D01*
X0068300Y0064866D02*
X0086450Y0064866D01*
X0086450Y0067264D02*
X0068300Y0067264D01*
X0068300Y0069663D02*
X0086450Y0069663D01*
X0086450Y0072061D02*
X0068300Y0072061D01*
X0068300Y0074460D02*
X0086450Y0074460D01*
X0086450Y0076858D02*
X0068300Y0076858D01*
X0069348Y0079257D02*
X0086450Y0079257D01*
X0087577Y0081655D02*
X0071747Y0081655D01*
X0074145Y0084054D02*
X0089975Y0084054D01*
X0092374Y0086452D02*
X0076544Y0086452D01*
X0078942Y0088851D02*
X0094772Y0088851D01*
X0095200Y0091249D02*
X0081341Y0091249D01*
X0083161Y0093648D02*
X0095200Y0093648D01*
X0095200Y0096046D02*
X0085710Y0096046D01*
X0085750Y0098445D02*
X0095200Y0098445D01*
X0095200Y0100843D02*
X0085750Y0100843D01*
X0085750Y0103242D02*
X0095200Y0103242D01*
X0095200Y0105640D02*
X0085750Y0105640D01*
X0085750Y0108039D02*
X0095200Y0108039D01*
X0095200Y0110437D02*
X0085750Y0110437D01*
X0085750Y0112836D02*
X0095200Y0112836D01*
X0095200Y0115234D02*
X0085750Y0115234D01*
X0085750Y0117633D02*
X0095200Y0117633D01*
X0095200Y0120032D02*
X0084578Y0120032D01*
X0091861Y0129626D02*
X0064400Y0129626D01*
X0064400Y0131400D02*
X0059750Y0131400D01*
X0059750Y0131500D01*
X0064400Y0131500D01*
X0064400Y0137990D01*
X0064250Y0138549D01*
X0063960Y0139051D01*
X0063551Y0139460D01*
X0063049Y0139750D01*
X0062490Y0139900D01*
X0059750Y0139900D01*
X0059750Y0131500D01*
X0059650Y0131500D01*
X0059650Y0139900D01*
X0056910Y0139900D01*
X0056351Y0139750D01*
X0055849Y0139460D01*
X0055440Y0139051D01*
X0055150Y0138549D01*
X0055000Y0137990D01*
X0055000Y0131500D01*
X0059650Y0131500D01*
X0059650Y0131400D01*
X0059750Y0131400D01*
X0059750Y0123000D01*
X0062490Y0123000D01*
X0063049Y0123150D01*
X0063551Y0123440D01*
X0063960Y0123849D01*
X0064250Y0124351D01*
X0064400Y0124910D01*
X0064400Y0131400D01*
X0064400Y0132024D02*
X0092491Y0132024D01*
X0095200Y0134423D02*
X0064400Y0134423D01*
X0064400Y0136821D02*
X0095200Y0136821D01*
X0095200Y0139220D02*
X0073529Y0139220D01*
X0075000Y0141618D02*
X0079447Y0141618D01*
X0077106Y0144017D02*
X0075000Y0144017D01*
X0075000Y0146415D02*
X0076112Y0146415D01*
X0075700Y0148814D02*
X0075000Y0148814D01*
X0075000Y0151212D02*
X0075709Y0151212D01*
X0075000Y0153611D02*
X0076703Y0153611D01*
X0076100Y0156009D02*
X0078474Y0156009D01*
X0070715Y0160806D02*
X0019460Y0160806D01*
X0015648Y0158408D02*
X0031363Y0158408D01*
X0032310Y0158800D02*
X0028819Y0157354D01*
X0026146Y0154681D01*
X0024700Y0151190D01*
X0024700Y0147410D01*
X0026146Y0143919D01*
X0028819Y0141246D01*
X0032310Y0139800D01*
X0036090Y0139800D01*
X0039581Y0141246D01*
X0042254Y0143919D01*
X0043700Y0147410D01*
X0043700Y0151190D01*
X0042254Y0154681D01*
X0039581Y0157354D01*
X0036090Y0158800D01*
X0032310Y0158800D01*
X0027474Y0156009D02*
X0013981Y0156009D01*
X0013238Y0153611D02*
X0025703Y0153611D01*
X0024709Y0151212D02*
X0013100Y0151212D01*
X0013100Y0148814D02*
X0024700Y0148814D01*
X0025112Y0146415D02*
X0013100Y0146415D01*
X0013100Y0144017D02*
X0026106Y0144017D01*
X0028447Y0141618D02*
X0013100Y0141618D01*
X0013100Y0139220D02*
X0043611Y0139220D01*
X0043734Y0139516D02*
X0043111Y0138013D01*
X0043111Y0136387D01*
X0043734Y0134884D01*
X0044884Y0133734D01*
X0046387Y0133111D01*
X0048013Y0133111D01*
X0049516Y0133734D01*
X0050666Y0134884D01*
X0051155Y0136064D01*
X0052752Y0137661D01*
X0053300Y0138984D01*
X0053300Y0139125D01*
X0053786Y0139326D01*
X0054574Y0140114D01*
X0055000Y0141143D01*
X0055000Y0154757D01*
X0054574Y0155786D01*
X0053786Y0156574D01*
X0052757Y0157000D01*
X0046643Y0157000D01*
X0045614Y0156574D01*
X0044826Y0155786D01*
X0044400Y0154757D01*
X0044400Y0141143D01*
X0044681Y0140464D01*
X0043734Y0139516D01*
X0043111Y0136821D02*
X0013100Y0136821D01*
X0013100Y0134423D02*
X0044195Y0134423D01*
X0050205Y0134423D02*
X0055000Y0134423D01*
X0055000Y0132024D02*
X0013100Y0132024D01*
X0013100Y0129626D02*
X0055000Y0129626D01*
X0055000Y0131400D02*
X0055000Y0124910D01*
X0055150Y0124351D01*
X0055440Y0123849D01*
X0055849Y0123440D01*
X0056351Y0123150D01*
X0056910Y0123000D01*
X0059650Y0123000D01*
X0059650Y0131400D01*
X0055000Y0131400D01*
X0055000Y0127227D02*
X0025051Y0127227D01*
X0025449Y0124829D02*
X0055022Y0124829D01*
X0059650Y0124829D02*
X0059750Y0124829D01*
X0059750Y0127227D02*
X0059650Y0127227D01*
X0059650Y0129626D02*
X0059750Y0129626D01*
X0059750Y0132024D02*
X0059650Y0132024D01*
X0059650Y0134423D02*
X0059750Y0134423D01*
X0059750Y0136821D02*
X0059650Y0136821D01*
X0059650Y0139220D02*
X0059750Y0139220D01*
X0063792Y0139220D02*
X0065871Y0139220D01*
X0064400Y0141618D02*
X0055000Y0141618D01*
X0055000Y0144017D02*
X0064400Y0144017D01*
X0064400Y0146415D02*
X0055000Y0146415D01*
X0055000Y0148814D02*
X0064400Y0148814D01*
X0064400Y0151212D02*
X0055000Y0151212D01*
X0055000Y0153611D02*
X0064400Y0153611D01*
X0065049Y0156009D02*
X0054351Y0156009D01*
X0045049Y0156009D02*
X0040926Y0156009D01*
X0042697Y0153611D02*
X0044400Y0153611D01*
X0044400Y0151212D02*
X0043691Y0151212D01*
X0043700Y0148814D02*
X0044400Y0148814D01*
X0044400Y0146415D02*
X0043288Y0146415D01*
X0042294Y0144017D02*
X0044400Y0144017D01*
X0044400Y0141618D02*
X0039953Y0141618D01*
X0051912Y0136821D02*
X0055000Y0136821D01*
X0055608Y0139220D02*
X0053529Y0139220D01*
X0064400Y0127227D02*
X0092640Y0127227D01*
X0095200Y0124829D02*
X0064378Y0124829D01*
X0064578Y0120032D02*
X0074822Y0120032D01*
X0070125Y0117633D02*
X0069275Y0117633D01*
X0069275Y0115234D02*
X0070125Y0115234D01*
X0070125Y0112836D02*
X0069275Y0112836D01*
X0069275Y0110437D02*
X0070125Y0110437D01*
X0070125Y0108039D02*
X0069275Y0108039D01*
X0054822Y0120032D02*
X0054578Y0120032D01*
X0044822Y0120032D02*
X0044578Y0120032D01*
X0034822Y0120032D02*
X0025449Y0120032D01*
X0024158Y0117633D02*
X0033650Y0117633D01*
X0033650Y0115234D02*
X0026049Y0115234D01*
X0026049Y0112836D02*
X0033650Y0112836D01*
X0033650Y0110437D02*
X0026049Y0110437D01*
X0026049Y0108039D02*
X0033650Y0108039D01*
X0033650Y0105640D02*
X0023300Y0105640D01*
X0025806Y0103242D02*
X0033650Y0103242D01*
X0033650Y0100843D02*
X0026043Y0100843D01*
X0026043Y0098445D02*
X0033650Y0098445D01*
X0033690Y0096046D02*
X0026043Y0096046D01*
X0025039Y0093648D02*
X0036239Y0093648D01*
X0038059Y0091249D02*
X0026043Y0091249D01*
X0026043Y0088851D02*
X0040458Y0088851D01*
X0042856Y0086452D02*
X0026043Y0086452D01*
X0025970Y0084054D02*
X0044563Y0084054D01*
X0049837Y0084054D02*
X0050255Y0084054D01*
X0051100Y0081655D02*
X0023300Y0081655D01*
X0025774Y0079257D02*
X0051100Y0079257D01*
X0051100Y0076858D02*
X0026289Y0076858D01*
X0029400Y0074460D02*
X0051100Y0074460D01*
X0051100Y0072061D02*
X0030500Y0072061D01*
X0030500Y0069663D02*
X0051100Y0069663D01*
X0051100Y0067264D02*
X0030500Y0067264D01*
X0037900Y0062467D02*
X0038000Y0062467D01*
X0038000Y0060069D02*
X0037900Y0060069D01*
X0037900Y0057670D02*
X0038000Y0057670D01*
X0038000Y0055272D02*
X0037900Y0055272D01*
X0069700Y0023738D02*
X0069700Y0021450D01*
X0069700Y0023737D01*
X0069700Y0023738D01*
X0069700Y0021693D02*
X0069700Y0021693D01*
X0071807Y0021693D02*
X0076601Y0021693D01*
X0079000Y0024091D02*
X0074200Y0024091D01*
X0074200Y0025950D02*
X0071912Y0025950D01*
X0071913Y0025950D01*
X0074200Y0025950D01*
X0074200Y0026490D02*
X0081100Y0026490D01*
X0081100Y0028888D02*
X0074800Y0028888D01*
X0074800Y0031287D02*
X0081100Y0031287D01*
X0081100Y0033685D02*
X0074177Y0033685D01*
X0081400Y0055272D02*
X0081500Y0055272D01*
X0081500Y0057670D02*
X0081400Y0057670D01*
X0081400Y0060069D02*
X0081500Y0060069D01*
X0081500Y0062467D02*
X0081400Y0062467D01*
X0095200Y0122430D02*
X0020075Y0122430D01*
X0019325Y0122430D02*
X0017841Y0122430D01*
X0019325Y0123173D02*
X0013951Y0123173D01*
X0013951Y0126238D01*
X0014101Y0126797D01*
X0014390Y0127299D01*
X0014800Y0127708D01*
X0015302Y0127998D01*
X0015861Y0128148D01*
X0019325Y0128148D01*
X0019325Y0123173D01*
X0019325Y0124829D02*
X0020075Y0124829D01*
X0020075Y0127227D02*
X0019325Y0127227D01*
X0014349Y0127227D02*
X0013100Y0127227D01*
X0013100Y0124829D02*
X0013951Y0124829D01*
X0037037Y0158408D02*
X0068317Y0158408D01*
X0091926Y0156009D02*
X0095200Y0156009D01*
X0095200Y0153611D02*
X0093697Y0153611D01*
X0094691Y0151212D02*
X0095200Y0151212D01*
X0095200Y0148814D02*
X0094700Y0148814D01*
X0094288Y0146415D02*
X0095200Y0146415D01*
X0095200Y0144017D02*
X0093294Y0144017D01*
X0095200Y0141618D02*
X0090953Y0141618D01*
M02*
